<svg width="189" height="35" viewBox="0 0 189 35" fill="none" xmlns="http://www.w3.org/2000/svg">
<path d="M25.4396 1.872V27H18.8876L13.2716 9.9H12.9116L7.15163 27H0.635625V1.872H4.05563V23.616H4.48763L10.2476 6.48H15.9356L21.5876 23.616H22.0196V1.872H25.4396ZM32.1463 0.215999V9.18H42.6583V27H39.1663V12.6H32.1463V27H28.6903V0.215999H32.1463ZM45.8457 3.384H49.1937V6.732H45.8457V3.384ZM49.2297 9.108V27H45.8457V20.484L45.9537 9.108H49.2297ZM76.3599 9.144V27H72.9759V12.528H66.0999V27H62.7159V12.528H55.8399V27H52.4559V9.144H76.3599ZM93.8526 21.384C93.8526 22.368 93.6486 23.232 93.2406 23.976C92.8566 24.72 92.3406 25.344 91.6926 25.848C91.0446 26.328 90.3006 26.688 89.4606 26.928C88.6206 27.168 87.7446 27.288 86.8326 27.288C86.1846 27.288 85.5126 27.24 84.8166 27.144C84.1446 27.072 83.4966 26.916 82.8726 26.676C82.2486 26.436 81.6846 26.112 81.1806 25.704C80.6766 25.296 80.2806 24.768 79.9926 24.12C79.5126 23.184 79.2726 22.164 79.2726 21.06L79.2366 20.664H82.5846L82.6206 21.024C82.6206 21.408 82.6806 21.756 82.8006 22.068C82.9206 22.5 83.1126 22.86 83.3766 23.148C83.6646 23.412 84.0006 23.616 84.3846 23.76C84.7686 23.904 85.1646 24 85.5726 24.048C86.0046 24.096 86.4126 24.12 86.7966 24.12C87.1566 24.12 87.5406 24.084 87.9486 24.012C88.3566 23.94 88.7286 23.82 89.0646 23.652C89.4246 23.46 89.7126 23.22 89.9286 22.932C90.1686 22.644 90.2886 22.272 90.2886 21.816C90.2886 21.312 90.1086 20.94 89.7486 20.7C89.5326 20.532 89.2086 20.376 88.7766 20.232C88.3686 20.088 87.8526 19.932 87.2286 19.764L83.9526 18.972C81.1926 18.276 79.8126 16.8 79.8126 14.544C79.8126 13.56 79.9926 12.72 80.3526 12.024C80.7126 11.304 81.1926 10.704 81.7926 10.224C82.4166 9.744 83.1366 9.396 83.9526 9.18C84.7686 8.94 85.6206 8.82 86.5086 8.82C87.8526 8.82 89.0646 9.06 90.1446 9.54C91.2486 10.02 92.1126 10.872 92.7366 12.096C92.8566 12.384 92.9526 12.648 93.0246 12.888C93.1206 13.104 93.1806 13.308 93.2046 13.5C93.2766 13.86 93.3126 14.172 93.3126 14.436V14.832H89.9646L89.9286 14.472C89.9046 13.632 89.5806 13.008 88.9566 12.6C88.3326 12.192 87.4206 11.988 86.2206 11.988C85.9086 11.988 85.5726 12.024 85.2126 12.096C84.8766 12.168 84.5646 12.288 84.2766 12.456C83.9886 12.6 83.7486 12.804 83.5566 13.068C83.3646 13.308 83.2686 13.62 83.2686 14.004C83.2686 14.508 83.4246 14.868 83.7366 15.084C83.8566 15.156 84.0846 15.264 84.4206 15.408C84.7806 15.528 85.3206 15.684 86.0406 15.876L88.8486 16.596C89.4966 16.764 90.1206 16.968 90.7206 17.208C91.3446 17.424 91.8846 17.724 92.3406 18.108C92.7966 18.468 93.1566 18.912 93.4206 19.44C93.7086 19.968 93.8526 20.616 93.8526 21.384ZM112.811 9.144H116.627V12.528H115.079V34.164H98.2305V30.816H111.731V25.02C110.891 25.716 109.943 26.268 108.887 26.676C107.831 27.084 106.715 27.288 105.539 27.288C104.219 27.288 103.007 27.036 101.903 26.532C100.823 26.028 99.8985 25.344 99.1305 24.48C98.3625 23.616 97.7625 22.608 97.3305 21.456C96.8985 20.304 96.6825 19.068 96.6825 17.748V9.144H100.067V17.748C100.067 18.588 100.187 19.404 100.427 20.196C100.691 20.964 101.051 21.648 101.507 22.248C101.987 22.824 102.563 23.292 103.235 23.652C103.931 24.012 104.699 24.192 105.539 24.192C106.379 24.192 107.171 24.012 107.915 23.652C108.659 23.292 109.307 22.824 109.859 22.248C110.435 21.648 110.891 20.964 111.227 20.196C111.563 19.404 111.731 18.588 111.731 17.748V11.232L112.811 9.144ZM127.655 27V1.872H135.791C136.703 1.872 137.567 2.052 138.383 2.412C139.199 2.772 139.907 3.264 140.507 3.888C141.107 4.488 141.575 5.208 141.911 6.048C142.271 6.888 142.451 7.776 142.451 8.712C142.451 9.648 142.271 10.536 141.911 11.376C141.575 12.216 141.107 12.948 140.507 13.572C139.907 14.196 139.199 14.688 138.383 15.048C137.567 15.408 136.703 15.588 135.791 15.588H131.039V27H127.655ZM135.791 12.204C136.271 12.204 136.715 12.12 137.123 11.952C137.531 11.76 137.879 11.508 138.167 11.196C138.479 10.884 138.719 10.512 138.887 10.08C139.079 9.648 139.175 9.192 139.175 8.712C139.175 8.232 139.079 7.788 138.887 7.38C138.719 6.948 138.479 6.576 138.167 6.264C137.879 5.928 137.531 5.676 137.123 5.508C136.715 5.316 136.271 5.22 135.791 5.22H131.039V12.204H135.791ZM155.203 12.564H145.519V9.144H158.587V23.58H160.135V27H156.319L155.779 25.956C155.203 26.388 154.567 26.724 153.871 26.964C153.175 27.204 152.443 27.324 151.675 27.324C150.715 27.324 149.815 27.144 148.975 26.784C148.159 26.424 147.439 25.932 146.815 25.308C146.191 24.684 145.699 23.952 145.339 23.112C144.979 22.272 144.799 21.384 144.799 20.448C144.799 19.488 144.979 18.612 145.339 17.82C145.699 17.004 146.191 16.308 146.815 15.732C147.439 15.132 148.159 14.664 148.975 14.328C149.815 13.992 150.715 13.824 151.675 13.824C152.971 13.824 154.147 14.16 155.203 14.832V12.564ZM151.675 24.084C152.179 24.084 152.659 24.012 153.115 23.868C153.571 23.7 153.967 23.472 154.303 23.184C154.663 22.896 154.951 22.548 155.167 22.14C155.383 21.732 155.491 21.276 155.491 20.772C155.491 20.124 155.371 19.56 155.131 19.08C154.915 18.576 154.627 18.168 154.267 17.856C153.907 17.52 153.487 17.268 153.007 17.1C152.551 16.932 152.083 16.848 151.603 16.848C151.147 16.848 150.703 16.932 150.271 17.1C149.839 17.244 149.455 17.472 149.119 17.784C148.783 18.096 148.507 18.492 148.291 18.972C148.099 19.428 148.003 19.98 148.003 20.628C148.003 21.636 148.363 22.464 149.083 23.112C149.803 23.76 150.667 24.084 151.675 24.084ZM171.727 9.144V12.528H165.211V27H161.827V9.144H171.727ZM177.833 0.215999L177.869 16.488L183.845 9.18H188.381L182.369 16.524H188.381V27H184.889V19.908H177.869V27H174.413L174.377 0.215999H177.833Z" fill="#FFE247"/>
</svg>
