<svg width="64" height="65" viewBox="0 0 64 65" fill="none" xmlns="http://www.w3.org/2000/svg">
<path d="M3.18285 18.0916C10.8869 2.16254 30.0166 -4.49937 45.9084 3.20463C61.8375 10.9086 68.4994 30.0384 60.7954 45.9302C53.0914 61.8592 33.9616 68.5211 18.0326 60.8171C2.17798 53.1504 -4.48393 34.0206 3.18285 18.0916Z" fill="#FF90E8"/>
<path d="M27.847 24.3452L28.3544 25.588C28.3946 25.6862 28.4894 25.75 28.5955 25.7501L29.1384 25.75C29.2605 25.7496 29.3632 25.6658 29.3876 25.5462L29.5698 24.6539C29.6385 24.3174 29.7532 23.8614 30.1332 23.5605C30.5062 23.265 30.9731 23.2501 31.3056 23.2501H32.6942C33.0267 23.2501 33.4936 23.265 33.8666 23.5605C34.2466 23.8614 34.3613 24.3174 34.43 24.6539L34.6122 25.5462C34.6366 25.6658 34.7393 25.7496 34.8613 25.75L35.4043 25.7501C35.5104 25.75 35.6052 25.6862 35.6453 25.588L36.1528 24.3452C36.2893 24.0107 36.4356 23.6686 36.7486 23.461C37.061 23.2539 37.434 23.2501 37.7949 23.2501L38.8993 23.2501C39.4662 23.2499 40.1113 23.2357 40.5012 23.7249C40.7539 24.0419 40.7667 24.3963 40.7401 24.6525C40.7169 24.8756 40.65 25.1375 40.5859 25.3882L39.996 27.7002C39.8499 28.2773 39.5532 28.7152 39.1366 29.1192C39.048 29.2052 38.928 29.2501 38.8046 29.2501H25.1952C25.0717 29.2501 24.9518 29.2052 24.8632 29.1192C24.4466 28.7152 24.1498 28.2773 24.0038 27.7002L23.4138 25.3882C23.3498 25.1375 23.2828 24.8757 23.2597 24.6525C23.2331 24.3963 23.2459 24.0419 23.4985 23.7249C23.8884 23.2357 24.5335 23.2499 25.1005 23.2501L26.2049 23.2501C26.5657 23.2501 26.9388 23.2539 27.2511 23.461C27.5641 23.6686 27.7104 24.0107 27.847 24.3452Z" fill="#FBFBF9"/>
<path fill-rule="evenodd" clip-rule="evenodd" d="M32.0001 37.5008C31.9632 37.5008 31.9245 37.5006 31.8843 37.5004C31.564 37.499 31.1463 37.4971 30.7556 37.5794C30.2763 37.6803 29.7819 37.9149 29.4085 38.4296C29.2402 38.6617 29.144 38.9111 29.0716 39.1678C29.0037 39.4086 28.945 39.7021 28.8777 40.0388L28.3354 42.75H24.2793L25.2252 36.2634C25.2609 36.0186 25.2788 35.8962 25.3633 35.8231C25.4478 35.75 25.5715 35.75 25.8189 35.75H29.0004C29.4146 35.75 29.7504 35.4142 29.7504 35C29.7504 34.5858 29.4146 34.25 29.0004 34.25H26.2127C25.8899 34.25 25.7285 34.25 25.6388 34.1462C25.5491 34.0425 25.5724 33.8828 25.6189 33.5634L25.8656 31.8717C25.897 31.6566 25.9228 31.4742 25.9432 31.3182C25.9798 31.0387 25.9982 30.899 26.0831 30.8245C26.168 30.75 26.303 30.75 26.5729 30.75H37.4279C37.6978 30.75 37.8328 30.75 37.9177 30.8245C38.0026 30.899 38.021 31.0387 38.0576 31.3182C38.078 31.4742 38.1038 31.6566 38.1352 31.8717C38.1398 31.9037 38.1422 31.9197 38.1429 31.9328C38.1522 32.0947 38.0312 32.2347 37.8696 32.2489C37.8566 32.25 37.8404 32.25 37.808 32.25H35.0004C34.5862 32.25 34.2504 32.5858 34.2504 33C34.2504 33.4142 34.5862 33.75 35.0004 33.75H37.8902C38.1377 33.75 38.2614 33.75 38.3459 33.8231C38.4304 33.8962 38.4482 34.0186 38.4839 34.2634L39.7215 42.75H35.6648L35.1226 40.0388C35.0553 39.7022 34.9966 39.4086 34.9287 39.1678C34.8563 38.9111 34.7601 38.6617 34.5917 38.4296C34.2184 37.9149 33.724 37.6803 33.2447 37.5794C32.854 37.4971 32.4363 37.499 32.116 37.5004C32.0758 37.5006 32.0371 37.5008 32.0001 37.5008ZM34.1351 42.75L33.6569 40.359C33.5829 39.9888 33.5352 39.7529 33.485 39.5748C33.4375 39.4063 33.4016 39.3436 33.3775 39.3104C33.2729 39.1661 33.1444 39.0911 32.9357 39.0472C32.7108 38.9998 32.4605 39.0002 32.112 39.0007L32.0001 39.0008L31.8883 39.0007C31.5398 39.0002 31.2895 38.9998 31.0646 39.0472C30.8559 39.0911 30.7274 39.1661 30.6227 39.3104C30.5987 39.3436 30.5628 39.4063 30.5153 39.5748C30.4651 39.7529 30.4174 39.9888 30.3433 40.359L29.8651 42.75H34.1351Z" fill="#FBFBF9"/>
<path d="M23.5 42.75C22.9477 42.75 22.5 43.1977 22.5 43.75C22.5 44.3023 22.9477 44.75 23.5 44.75H40.5C41.0523 44.75 41.5 44.3023 41.5 43.75C41.5 43.1977 41.0523 42.75 40.5 42.75H23.5Z" fill="#FBFBF9"/>
</svg>
