<svg width="64" height="64" viewBox="0 0 64 64" fill="none" xmlns="http://www.w3.org/2000/svg">
<path d="M64 32C64 34.5974 57.9394 36.3636 57.2814 38.7879C56.6234 41.2814 60.9524 45.8528 59.7056 48C58.4242 50.2164 52.2944 48.7273 50.4935 50.4935C48.6926 52.2944 50.1818 58.4242 48 59.7056C45.8182 60.9524 41.2468 56.6234 38.7879 57.2814C36.3983 57.9394 34.5974 64 32 64C29.4026 64 27.6364 57.9394 25.2121 57.2814C22.7186 56.6234 18.1472 60.9524 16 59.7056C13.7836 58.4242 15.2727 52.2944 13.5065 50.4935C11.7056 48.6926 5.57576 50.1818 4.29437 48C3.04762 45.8182 7.37662 41.2468 6.71861 38.7879C6.06061 36.3983 0 34.5974 0 32C0 29.4026 6.06061 27.6364 6.71861 25.2121C7.37662 22.7186 3.04762 18.1472 4.29437 16C5.57576 13.7836 11.7056 15.2727 13.5065 13.5065C15.3074 11.7056 13.8182 5.57576 16 4.29437C18.1818 3.04762 22.7532 7.37662 25.2121 6.71861C27.6364 6.06061 29.4026 0 32 0C34.5974 0 36.3636 6.06061 38.7879 6.71861C41.2814 7.37662 45.8528 3.04762 48 4.29437C50.2164 5.57576 48.7273 11.7056 50.4935 13.5065C52.2944 15.3074 58.4242 13.8182 59.7056 16C60.9524 18.1818 56.6234 22.7532 57.2814 25.2121C57.9394 27.6364 64 29.4026 64 32Z" fill="#F97C42"/>
<path fill-rule="evenodd" clip-rule="evenodd" d="M35.8571 44H39.7143C40.4244 44 41 43.4244 41 42.7143V26C41 22.4098 38.8978 19.3106 35.8571 17.8661C34.6881 17.3107 33.3803 17 32 17C27.0294 17 23 21.0294 23 26V42.7143C23 43.4244 23.5756 44 24.2857 44H28.1429V49.1429C28.1429 51.2731 29.8698 53 32 53C34.1302 53 35.8571 51.2731 35.8571 49.1429V44ZM38.4286 26C38.4286 23.8968 37.4186 22.0295 35.8571 20.8567V24.7143C35.8571 26.3937 34.7838 27.8224 33.2857 28.3519C32.8836 28.4941 32.4508 28.5714 32 28.5714C31.5492 28.5714 31.1164 28.4941 30.7143 28.3519V29.8571C30.7143 30.2469 30.6565 30.6232 30.549 30.9778C30.0688 32.5615 28.5976 33.7143 26.8571 33.7143C26.4063 33.7143 25.9736 33.6369 25.5714 33.4948V41.4286H38.4286V26ZM33.2857 44H30.7143V49.1429C30.7143 49.8529 31.2899 50.4286 32 50.4286C32.7101 50.4286 33.2857 49.8529 33.2857 49.1429V44ZM33.2857 19.7C32.8985 19.6214 32.4987 19.5776 32.0896 19.572C32.0598 19.5716 32.0299 19.5714 32 19.5714C28.4496 19.5714 25.5714 22.4496 25.5714 26V29.8571C25.5714 30.5672 26.1471 31.1429 26.8571 31.1429C27.5672 31.1429 28.1429 30.5672 28.1429 29.8571V28.3519C28.1429 27.5172 28.548 26.7344 29.2296 26.2525C29.9111 25.7705 30.7842 25.6493 31.5712 25.9275C31.702 25.9737 31.8451 26 32 26C32.7101 26 33.2857 25.4244 33.2857 24.7143V19.7Z" fill="#FAFAFA"/>
</svg>
