<svg width="64" height="64" viewBox="0 0 64 64" fill="none" xmlns="http://www.w3.org/2000/svg">
<path d="M64 32C64 34.5974 57.9394 36.3636 57.2814 38.7879C56.6234 41.2814 60.9524 45.8528 59.7056 48C58.4242 50.2164 52.2944 48.7273 50.4935 50.4935C48.6926 52.2944 50.1818 58.4242 48 59.7056C45.8182 60.9524 41.2468 56.6234 38.7879 57.2814C36.3983 57.9394 34.5974 64 32 64C29.4026 64 27.6364 57.9394 25.2121 57.2814C22.7186 56.6234 18.1472 60.9524 16 59.7056C13.7836 58.4242 15.2727 52.2944 13.5065 50.4935C11.7056 48.6926 5.57576 50.1818 4.29437 48C3.04762 45.8182 7.37662 41.2468 6.71861 38.7879C6.06061 36.3983 0 34.5974 0 32C0 29.4026 6.06061 27.6364 6.71861 25.2121C7.37662 22.7186 3.04762 18.1472 4.29437 16C5.57576 13.7836 11.7056 15.2727 13.5065 13.5065C15.3074 11.7056 13.8182 5.57576 16 4.29437C18.1818 3.04762 22.7532 7.37662 25.2121 6.71861C27.6364 6.06061 29.4026 0 32 0C34.5974 0 36.3636 6.06061 38.7879 6.71861C41.2814 7.37662 45.8528 3.04762 48 4.29437C50.2164 5.57576 48.7273 11.7056 50.4935 13.5065C52.2944 15.3074 58.4242 13.8182 59.7056 16C60.9524 18.1818 56.6234 22.7532 57.2814 25.2121C57.9394 27.6364 64 29.4026 64 32Z" fill="#AADEFE"/>
<g clip-path="url(#clip0_47_81)">
<path d="M26.5906 25.8819C26.8031 26.4657 26.5021 27.1113 25.9183 27.3238C25.3344 27.5363 24.6888 27.2353 24.4763 26.6514C24.2638 26.0676 24.5649 25.422 25.1487 25.2095C25.7326 24.997 26.3781 25.298 26.5906 25.8819Z" fill="#FBFBF9"/>
<path d="M27.4574 31.5524C28.0412 31.3399 28.3422 30.6944 28.1297 30.1105C27.9172 29.5267 27.2717 29.2256 26.6878 29.4381C26.104 29.6506 25.8029 30.2962 26.0154 30.88C26.2279 31.4639 26.8735 31.7649 27.4574 31.5524Z" fill="#FBFBF9"/>
<path d="M29.6688 34.3391C29.8813 34.923 29.5803 35.5685 28.9964 35.781C28.4126 35.9935 27.767 35.6925 27.5545 35.1087C27.342 34.5248 27.643 33.8792 28.2269 33.6667C28.8108 33.4542 29.4563 33.7553 29.6688 34.3391Z" fill="#FBFBF9"/>
<path d="M30.5355 40.0097C31.1194 39.7972 31.4204 39.1516 31.2079 38.5677C30.9954 37.9839 30.3498 37.6828 29.766 37.8954C29.1821 38.1079 28.8811 38.7534 29.0936 39.3373C29.3061 39.9211 29.9517 40.2222 30.5355 40.0097Z" fill="#FBFBF9"/>
<path fill-rule="evenodd" clip-rule="evenodd" d="M17.2667 23.2895L38.4098 15.5941C40.7452 14.7441 43.3275 15.9482 44.1775 18.2836L45.0938 20.8013C45.6655 22.3719 45.2055 23.8707 44.8071 24.7875C44.5843 25.2999 44.5511 25.8886 44.7566 26.4532C44.9621 27.0179 45.366 27.4474 45.866 27.6968C46.7605 28.143 48.0763 28.9955 48.648 30.5661L49.5643 33.0838C50.4143 35.4192 49.2102 38.0014 46.8748 38.8515L25.7317 46.5469C23.3963 47.3969 20.814 46.1928 19.964 43.8574L19.0476 41.3397C18.476 39.7691 18.936 38.2702 19.3344 37.3535C19.5571 36.841 19.5904 36.2524 19.3849 35.6878C19.1794 35.1231 18.7755 34.6936 18.2755 34.4442C17.381 33.998 16.0652 33.1455 15.4935 31.5749L14.5772 29.0572C13.7272 26.7218 14.9313 24.1395 17.2667 23.2895ZM18.0362 25.4038C16.8685 25.8288 16.2665 27.12 16.6915 28.2877L17.6078 30.8053C17.8825 31.5601 18.561 32.0722 19.2798 32.4307C20.2748 32.927 21.0889 33.7908 21.4992 34.9182C21.9095 36.0456 21.8412 37.2306 21.3979 38.2504C21.0778 38.987 20.8872 39.8154 21.1619 40.5702L22.0783 43.0878C22.5033 44.2555 23.7945 44.8576 24.9622 44.4326L46.1052 36.7372C47.2729 36.3121 47.875 35.021 47.45 33.8533L46.5336 31.3356C46.2589 30.5809 45.5805 30.0687 44.8617 29.7103C43.8667 29.2139 43.0526 28.3502 42.6423 27.2228C42.2319 26.0954 42.3003 24.9104 42.7436 23.8906C43.0637 23.154 43.2542 22.3255 42.9795 21.5708L42.0632 19.0531C41.6382 17.8854 40.347 17.2834 39.1793 17.7084L18.0362 25.4038Z" fill="#FBFBF9"/>
</g>
<defs>
<clipPath id="clip0_47_81">
<rect width="36" height="36" fill="white" transform="translate(9 20.3125) rotate(-20)"/>
</clipPath>
</defs>
</svg>
