<svg width="64" height="65" viewBox="0 0 64 65" fill="none" xmlns="http://www.w3.org/2000/svg">
<path d="M3.18285 18.0916C10.8869 2.16254 30.0166 -4.49937 45.9084 3.20463C61.8375 10.9086 68.4994 30.0384 60.7954 45.9302C53.0914 61.8592 33.9616 68.5211 18.0326 60.8171C2.17798 53.1504 -4.48393 34.0206 3.18285 18.0916Z" fill="#F97C42"/>
<path fill-rule="evenodd" clip-rule="evenodd" d="M25.1935 44.8836C24.737 44.4982 23.8852 44.4777 23.3953 44.8596C23.3767 44.8741 23.358 44.8887 23.3393 44.9032C22.9427 45.2129 22.5328 45.533 22.0294 45.6706C21.757 45.745 21.5062 45.7564 21.3039 45.7585C21.2213 45.7594 21.0906 45.7579 20.9546 45.7564C20.8397 45.7551 20.7211 45.7538 20.6243 45.7538C19.957 45.7538 19.416 45.2128 19.416 44.5455C19.416 43.8781 19.957 43.3372 20.6243 43.3372C20.7732 43.3372 20.9023 43.3388 21.01 43.3402L21.0174 43.3403C21.1308 43.3418 21.2107 43.3427 21.2784 43.342C21.333 43.3414 21.3666 43.3397 21.3855 43.3382C21.3964 43.332 21.4122 43.3225 21.4339 43.3083C21.5296 43.2458 21.6644 43.1446 21.9096 42.9535C23.2899 41.8777 25.4123 41.9055 26.7526 43.0372C26.9654 43.2168 27.3673 43.3666 27.8801 43.3666C28.3913 43.3665 28.8219 43.2168 29.0611 43.0303C30.413 41.9766 32.5276 41.7917 34.0026 43.0372C34.2586 43.2533 34.6616 43.3897 35.1519 43.3741C35.6434 43.3585 36.1042 43.1915 36.4096 42.9535C37.7899 41.8777 39.9123 41.9055 41.2526 43.0372C41.4646 43.2162 41.5769 43.3025 41.6466 43.3485C41.6664 43.3489 41.6947 43.3491 41.7334 43.3486C41.763 43.3482 41.8082 43.347 41.8638 43.3456C41.9964 43.3421 42.1889 43.3372 42.3743 43.3372C43.0417 43.3372 43.5827 43.8781 43.5827 44.5455C43.5827 45.2128 43.0417 45.7538 42.3743 45.7538C42.2109 45.7538 42.1033 45.7568 41.9943 45.7599C41.9242 45.7619 41.8535 45.7638 41.767 45.765C41.589 45.7675 41.342 45.7664 41.0734 45.7034C40.5129 45.5719 40.0913 45.2195 39.6935 44.8836C39.237 44.4982 38.3852 44.4777 37.8953 44.8596C37.1396 45.4486 36.1698 45.7596 35.2289 45.7896C34.2869 45.8196 33.2558 45.5695 32.4435 44.8836C31.9717 44.4852 31.1387 44.475 30.5467 44.9364C29.7841 45.5308 28.7891 45.7832 27.8803 45.7832C26.973 45.7833 25.9604 45.5312 25.1935 44.8836Z" fill="#FAFAFA"/>
<path fill-rule="evenodd" clip-rule="evenodd" d="M25.1935 40.0501C24.737 39.6647 23.8852 39.6442 23.3953 40.0261C23.3767 40.0406 23.358 40.0552 23.3393 40.0697C22.9427 40.3794 22.5328 40.6995 22.0294 40.8371C21.757 40.9115 21.5062 40.9229 21.3039 40.925C21.2213 40.9259 21.0906 40.9244 20.9546 40.9229C20.8397 40.9217 20.7211 40.9203 20.6243 40.9203C19.957 40.9203 19.416 40.3793 19.416 39.712C19.416 39.0447 19.957 38.5037 20.6243 38.5037C20.7732 38.5037 20.9023 38.5053 21.01 38.5067L21.0174 38.5068C21.1308 38.5083 21.2107 38.5092 21.2784 38.5085C21.333 38.5079 21.3666 38.5062 21.3855 38.5048C21.3964 38.4985 21.4122 38.489 21.4339 38.4748C21.5296 38.4123 21.6644 38.3111 21.9096 38.12C23.2899 37.0442 25.4123 37.072 26.7526 38.2037C26.9654 38.3833 27.3673 38.5331 27.8801 38.5331C28.3913 38.533 28.8219 38.3833 29.0611 38.1968C30.413 37.1431 32.5276 36.9582 34.0026 38.2037C34.2586 38.4198 34.6616 38.5563 35.1519 38.5406C35.6434 38.525 36.1042 38.358 36.4096 38.12C37.7899 37.0442 39.9123 37.072 41.2526 38.2037C41.4646 38.3827 41.5769 38.469 41.6466 38.515C41.6664 38.5154 41.6947 38.5157 41.7334 38.5151C41.763 38.5147 41.8082 38.5135 41.8638 38.5121C41.9964 38.5087 42.1889 38.5037 42.3743 38.5037C43.0417 38.5037 43.5827 39.0447 43.5827 39.712C43.5827 40.3793 43.0417 40.9203 42.3743 40.9203C42.2109 40.9203 42.1033 40.9233 41.9943 40.9264C41.9242 40.9284 41.8535 40.9303 41.767 40.9315C41.589 40.934 41.342 40.9329 41.0734 40.8699C40.5129 40.7384 40.0913 40.386 39.6935 40.0501C39.237 39.6647 38.3852 39.6442 37.8953 40.0261C37.1396 40.6151 36.1698 40.9261 35.2289 40.9561C34.2869 40.9861 33.2558 40.736 32.4435 40.0501C31.9717 39.6517 31.1387 39.6415 30.5467 40.1029C29.7841 40.6973 28.7891 40.9497 27.8803 40.9497C26.973 40.9498 25.9604 40.6977 25.1935 40.0501Z" fill="#FAFAFA"/>
<path fill-rule="evenodd" clip-rule="evenodd" d="M19.416 34.9168C19.416 34.2495 19.957 33.7085 20.6243 33.7085H42.3743C43.0417 33.7085 43.5827 34.2495 43.5827 34.9168C43.5827 35.5842 43.0417 36.1252 42.3743 36.1252H20.6243C19.957 36.1252 19.416 35.5842 19.416 34.9168Z" fill="#FAFAFA"/>
<path fill-rule="evenodd" clip-rule="evenodd" d="M25.4583 20.417C25.962 20.417 26.4129 20.7294 26.5897 21.2011C26.7043 21.5065 26.9973 22.1146 27.4615 22.6238C27.9173 23.1238 28.4476 23.4378 29.0833 23.4378C29.7507 23.4378 30.2917 23.9788 30.2917 24.6462C30.2917 25.3135 29.7507 25.8545 29.0833 25.8545C28.1508 25.8545 27.3681 25.5632 26.732 25.1537C26.8863 25.4719 27.1303 25.8855 27.4615 26.2488C27.9173 26.7488 28.4476 27.0628 29.0833 27.0628C29.7507 27.0628 30.2917 27.6038 30.2917 28.2712C30.2917 28.9385 29.7507 29.4795 29.0833 29.4795C28.1187 29.4795 27.3143 29.1678 26.6667 28.7359V34.917C26.6667 35.5843 26.1257 36.1253 25.4583 36.1253C24.791 36.1253 24.25 35.5843 24.25 34.917V28.7359C23.6024 29.1678 22.798 29.4795 21.8333 29.4795C21.166 29.4795 20.625 28.9385 20.625 28.2712C20.625 27.6038 21.166 27.0628 21.8333 27.0628C22.4691 27.0628 22.9994 26.7488 23.4552 26.2488C23.7863 25.8855 24.0304 25.4719 24.1847 25.1537C23.5485 25.5632 22.7658 25.8545 21.8333 25.8545C21.166 25.8545 20.625 25.3135 20.625 24.6462C20.625 23.9788 21.166 23.4378 21.8333 23.4378C22.4691 23.4378 22.9994 23.1238 23.4552 22.6238C23.9193 22.1146 24.2124 21.5065 24.3269 21.2011C24.5038 20.7294 24.9546 20.417 25.4583 20.417Z" fill="#FAFAFA"/>
<path d="M33.3115 23.1356C33.3115 20.9667 35.0697 19.2085 37.2386 19.2085C39.4075 19.2085 41.1657 20.9667 41.1657 23.1356C41.1657 25.3044 39.4075 27.0627 37.2386 27.0627C35.0697 27.0627 33.3115 25.3044 33.3115 23.1356Z" fill="#FAFAFA"/>
</svg>
