<svg width="24" height="24" viewBox="0 0 24 24" fill="none" xmlns="http://www.w3.org/2000/svg">
<path fill-rule="evenodd" clip-rule="evenodd" d="M15.1861 3.75384C16.3137 4.79051 16.9717 6.20232 17.1784 7.50129C17.1884 7.56391 17.2501 7.6537 17.3638 7.68948C19.0359 8.21539 20.25 9.77743 20.25 11.625C20.25 12.9701 19.6061 14.1649 18.6098 14.9179L17.3705 20.0301C17.1258 21.0393 16.2222 21.75 15.1838 21.75H8.78187C7.7672 21.75 6.87807 21.0709 6.61113 20.0919L5.31309 15.3318C3.94325 14.6609 3 13.2531 3 11.625C3 9.51758 4.62537 7.80094 6.6049 7.53624C6.75196 7.51658 6.84558 7.40668 6.86127 7.32876C7.03621 6.45999 7.4271 5.69046 8.12489 5.06609C8.33956 4.874 8.57709 4.69497 8.78448 4.53865L8.86173 4.48036C9.09952 4.30055 9.29454 4.1479 9.45222 3.99176C9.74415 3.70269 9.82632 3.4922 9.76568 3.19798L9.60123 2.40013L10.4099 2.30204C12.4297 2.05706 14.0394 2.6997 15.1861 3.75384ZM11.2513 3.75001C11.1518 4.29451 10.8455 4.72313 10.5076 5.05763C10.2704 5.29256 10.0009 5.49951 9.76646 5.6768L9.6888 5.73545C9.47423 5.89738 9.28967 6.03668 9.12511 6.18392C8.69937 6.56487 8.4514 7.03069 8.33176 7.62486C8.32064 7.68006 8.30694 7.73403 8.29082 7.7867C9.36772 8.44517 11.2595 9.22031 13.4254 9.00373C13.8375 8.96251 14.2051 9.26322 14.2463 9.67538C14.2875 10.0875 13.9868 10.4551 13.5746 10.4963C10.8507 10.7687 8.51873 9.74057 7.25225 8.9027C7.10815 8.96174 6.95712 9.0025 6.80371 9.02301C5.5325 9.19299 4.5 10.3056 4.5 11.625C4.5 13.0747 5.67525 14.25 7.125 14.25C7.61441 14.25 8.07042 14.1168 8.46124 13.8851C8.73757 13.7212 9.09319 13.6126 9.48016 13.6628C10.9454 13.8529 12.8646 14.0976 14.2566 13.9241C14.5593 13.8864 14.852 13.9382 15.1078 14.0458C15.4196 14.1771 15.7628 14.25 16.125 14.25C17.5747 14.25 18.75 13.0747 18.75 11.625C18.75 10.4511 17.9789 9.45539 16.9138 9.12037C16.3118 8.93102 15.8051 8.41544 15.6971 7.73708C15.5373 6.73326 15.0224 5.64095 14.1709 4.8581C13.4594 4.204 12.4972 3.74937 11.2513 3.75001ZM16.125 15.75C16.3834 15.75 16.6362 15.7262 16.8814 15.6808L15.9127 19.6767C15.8311 20.0131 15.5299 20.25 15.1838 20.25H8.78187C8.44365 20.25 8.14727 20.0236 8.05829 19.6973L6.98123 15.7475C7.02895 15.7492 7.07688 15.75 7.125 15.75C7.89093 15.75 8.61023 15.5405 9.22622 15.1753C9.2496 15.1615 9.26813 15.1549 9.27945 15.1522C9.28448 15.151 9.28756 15.1506 9.28889 15.1506L9.34504 15.1578C10.7499 15.3402 12.843 15.6119 14.4422 15.4126C14.4576 15.4107 14.4863 15.4117 14.5259 15.4284C15.0187 15.6358 15.5595 15.75 16.125 15.75Z" fill="black"/>
</svg>
