<svg width="3774" height="547" viewBox="0 0 3774 547" fill="none" xmlns="http://www.w3.org/2000/svg">
<g clip-path="url(#clip0_37_457)">
<path d="M1971.08 345.543C1971.08 345.543 1977.06 363.184 1984.76 367.55" stroke="black" stroke-width="2" stroke-miterlimit="10" stroke-linecap="round" stroke-linejoin="round"/>
<path d="M2734.91 504.769L2741.75 530.659" stroke="black" stroke-width="2" stroke-miterlimit="10" stroke-linecap="round" stroke-linejoin="round"/>
<path d="M2757.71 507.358L2755.43 526.775" stroke="black" stroke-width="2" stroke-miterlimit="10" stroke-linecap="round" stroke-linejoin="round"/>
<path d="M2189.97 352.016L2201.37 379.2" stroke="black" stroke-width="2" stroke-miterlimit="10" stroke-linecap="round" stroke-linejoin="round"/>
<path d="M2210.49 345.543C2210.49 345.543 2212.19 365.834 2216.19 371.433" stroke="black" stroke-width="2" stroke-miterlimit="10" stroke-linecap="round" stroke-linejoin="round"/>
<path d="M3316.33 349.426C3316.33 349.426 3306.33 370.9 3312.82 376.611" stroke="black" stroke-width="2" stroke-miterlimit="10" stroke-linecap="round" stroke-linejoin="round"/>
<path d="M3390.43 352.016V375.317" stroke="black" stroke-width="2" stroke-miterlimit="10" stroke-linecap="round" stroke-linejoin="round"/>
<path d="M1987.04 503.474H2007.56" stroke="black" stroke-width="2" stroke-miterlimit="10" stroke-linecap="round" stroke-linejoin="round"/>
<path d="M2034.92 503.474L2052.02 500.885" stroke="black" stroke-width="2" stroke-miterlimit="10" stroke-linecap="round" stroke-linejoin="round"/>
<path d="M3448.58 376.611L3465.68 375.317" stroke="black" stroke-width="2" stroke-miterlimit="10" stroke-linecap="round" stroke-linejoin="round"/>
<path d="M3495.32 371.433H3505.58" stroke="black" stroke-width="2" stroke-miterlimit="10" stroke-linecap="round" stroke-linejoin="round"/>
<path d="M2074.82 499.591C2074.82 499.591 2067.12 517.061 2071.74 522.892" stroke="black" stroke-width="2" stroke-miterlimit="10" stroke-linecap="round" stroke-linejoin="round"/>
<path d="M3772 196H2733.4C2733.4 196 2693.42 187.532 2664.32 186.108C2635.22 184.683 2603.95 182.641 2587.41 179.53C2570.86 176.419 2538.41 171.739 2522.92 170.874C2507.44 170.009 2333.74 158.508 2293.8 158.743C2253.87 158.978 2236.12 159.573 2217.13 157.495C2198.15 155.417 2174.33 151.934 2156.66 149.727C2139 147.52 2084.46 146.073 2065.85 145.267C2047.24 144.46 2038.4 145.267 2016.33 140.665C1994.25 136.063 1969.4 132.568 1946.04 133.007C1922.68 133.445 1898.85 135.605 1875.19 135.042C1851.52 134.478 1826 133.269 1826 133.269V11H3772V196Z" fill="#349948"/>
<path d="M2836.14 88.8461L2851.65 83.9546" stroke="black" stroke-width="2" stroke-miterlimit="10" stroke-linecap="round" stroke-linejoin="round"/>
<path d="M3054.05 102.542L3069.56 97.6506" stroke="black" stroke-width="2" stroke-miterlimit="10" stroke-linecap="round" stroke-linejoin="round"/>
<path d="M2869.73 15.474L2879.21 35.0399" stroke="black" stroke-width="2" stroke-miterlimit="10" stroke-linecap="round" stroke-linejoin="round"/>
<path d="M3087.65 29.1701L3097.12 48.736" stroke="black" stroke-width="2" stroke-miterlimit="10" stroke-linecap="round" stroke-linejoin="round"/>
<path d="M2886.1 14.4957L2889.54 35.0399" stroke="black" stroke-width="2" stroke-miterlimit="10" stroke-linecap="round" stroke-linejoin="round"/>
<path d="M3104.01 28.1918L3107.46 48.736" stroke="black" stroke-width="2" stroke-miterlimit="10" stroke-linecap="round" stroke-linejoin="round"/>
<path d="M2902.46 6.66937V35.0399" stroke="black" stroke-width="2" stroke-miterlimit="10" stroke-linecap="round" stroke-linejoin="round"/>
<path d="M3120.38 20.3655V48.736" stroke="black" stroke-width="2" stroke-miterlimit="10" stroke-linecap="round" stroke-linejoin="round"/>
<path d="M2436.33 67.3235C2417.36 71.8866 2419.15 86.8105 2435.85 89.48C2452.54 92.1519 2454.58 78.3945 2454.58 78.3945C2454.58 78.3945 2443.54 76.2349 2436.33 67.3235Z" fill="#AE9F66" stroke="black" stroke-width="2" stroke-miterlimit="10" stroke-linecap="round" stroke-linejoin="round"/>
<path d="M2302.13 75.1499L2312.46 91.7809" stroke="black" stroke-width="2" stroke-miterlimit="10" stroke-linecap="round" stroke-linejoin="round"/>
<path d="M2327.97 64.3887L2328.83 80.0414" stroke="black" stroke-width="2" stroke-miterlimit="10" stroke-linecap="round" stroke-linejoin="round"/>
<path d="M2362.42 61.4538L2358.98 75.1499" stroke="black" stroke-width="2" stroke-miterlimit="10" stroke-linecap="round" stroke-linejoin="round"/>
<path d="M2186.71 15.474L2199.63 35.0399" stroke="black" stroke-width="2" stroke-miterlimit="10" stroke-linecap="round" stroke-linejoin="round"/>
<path d="M2208.25 14.4957L2212.55 35.0399" stroke="black" stroke-width="2" stroke-miterlimit="10" stroke-linecap="round" stroke-linejoin="round"/>
<path d="M2229.78 6.66937V35.0399" stroke="black" stroke-width="2" stroke-miterlimit="10" stroke-linecap="round" stroke-linejoin="round"/>
<path d="M3461.66 403.856C3442.18 408.419 3444.02 423.343 3461.17 426.013C3478.31 428.685 3480.4 414.927 3480.4 414.927C3480.4 414.927 3469.06 412.768 3461.66 403.856Z" fill="#AE9F66" stroke="black" stroke-width="2" stroke-miterlimit="10" stroke-linecap="round" stroke-linejoin="round"/>
<path d="M2881.72 366.682C2877.9 355.108 2856.32 359.712 2856.82 369.334C2857.31 378.942 2883.37 376.715 2881.72 366.682Z" fill="#FFC900" stroke="black" stroke-width="2" stroke-miterlimit="10" stroke-linecap="round" stroke-linejoin="round"/>
<path d="M2768.96 406.791C2768.96 406.791 2772 415.055 2779.3 419.509" stroke="black" stroke-width="2" stroke-miterlimit="10" stroke-linecap="round" stroke-linejoin="round"/>
<path d="M2787.05 399.943V408.748" stroke="black" stroke-width="2" stroke-miterlimit="10" stroke-linecap="round" stroke-linejoin="round"/>
<path d="M2815.47 386.247V397.008" stroke="black" stroke-width="2" stroke-miterlimit="10" stroke-linecap="round" stroke-linejoin="round"/>
<path d="M2946.39 353.963L2962.76 375.486" stroke="black" stroke-width="2" stroke-miterlimit="10" stroke-linecap="round" stroke-linejoin="round"/>
<path d="M2955 403.856C2955 403.856 2970.47 397.253 2985.15 403.856" stroke="black" stroke-width="2" stroke-miterlimit="10" stroke-linecap="round" stroke-linejoin="round"/>
<path d="M3035.97 410.704L3051.47 403.856" stroke="black" stroke-width="2" stroke-miterlimit="10" stroke-linecap="round" stroke-linejoin="round"/>
<path d="M2988.59 432.227L3018.74 434.183" stroke="black" stroke-width="2" stroke-miterlimit="10" stroke-linecap="round" stroke-linejoin="round"/>
<path d="M3107.46 413.639C3109.34 413.639 3145.35 410.704 3145.35 410.704" stroke="black" stroke-width="2" stroke-miterlimit="10" stroke-linecap="round" stroke-linejoin="round"/>
<path d="M3167.75 425.379L3188.42 420.487" stroke="black" stroke-width="2" stroke-miterlimit="10" stroke-linecap="round" stroke-linejoin="round"/>
<path d="M3327.09 411.683L3337.43 428.314" stroke="black" stroke-width="2" stroke-miterlimit="10" stroke-linecap="round" stroke-linejoin="round"/>
<path d="M3353.79 400.922L3354.65 416.574" stroke="black" stroke-width="2" stroke-miterlimit="10" stroke-linecap="round" stroke-linejoin="round"/>
<path d="M3387.38 397.987L3383.94 411.683" stroke="black" stroke-width="2" stroke-miterlimit="10" stroke-linecap="round" stroke-linejoin="round"/>
<path d="M2886.1 450.814C2886.1 450.814 2875.23 466.874 2880.79 471.359" stroke="black" stroke-width="2" stroke-miterlimit="10" stroke-linecap="round" stroke-linejoin="round"/>
<path d="M2912.8 451.793C2912.8 451.793 2905.6 462.095 2906.93 466.467" stroke="black" stroke-width="2" stroke-miterlimit="10" stroke-linecap="round" stroke-linejoin="round"/>
<path d="M2965.34 453.749L2985.15 454.728" stroke="black" stroke-width="2" stroke-miterlimit="10" stroke-linecap="round" stroke-linejoin="round"/>
<path d="M3212.54 352.007L3224.59 371.573" stroke="black" stroke-width="2" stroke-miterlimit="10" stroke-linecap="round" stroke-linejoin="round"/>
<path d="M3234.07 351.029L3238.37 371.573" stroke="black" stroke-width="2" stroke-miterlimit="10" stroke-linecap="round" stroke-linejoin="round"/>
<path d="M3255.6 343.202V371.573" stroke="black" stroke-width="2" stroke-miterlimit="10" stroke-linecap="round" stroke-linejoin="round"/>
<rect x="1830" y="264" width="1938" height="286" fill="#349948"/>
<path d="M3374.92 436.091C3383.83 422.688 3397.71 422.376 3405.53 438.54C3406.87 441.325 3406.37 445.309 3404.5 447.179C3390.17 461.429 3379.46 450.385 3374.96 443.908C3373.5 441.815 3373.5 438.229 3374.92 436.091Z" fill="#FFC900" stroke="black" stroke-width="2" stroke-miterlimit="10" stroke-linecap="round" stroke-linejoin="round"/>
<path d="M3155.7 447.65C3156.23 444.91 3155.27 441.945 3153.6 441.112C3141.29 434.983 3132.99 444.999 3132.38 455.351C3131.78 465.392 3152.62 463.595 3155.7 447.65Z" fill="#FFC900" stroke="black" stroke-width="2" stroke-miterlimit="10" stroke-linecap="round" stroke-linejoin="round"/>
<path d="M2511.81 407.603C2493.18 416.283 2494.94 444.673 2511.35 449.751C2527.73 454.834 2529.74 428.663 2529.74 428.663C2529.74 428.663 2518.89 424.555 2511.81 407.603Z" fill="#AE9F66" stroke="black" stroke-width="2" stroke-miterlimit="10" stroke-linecap="round" stroke-linejoin="round"/>
<path d="M1942.69 336.885C1938.94 314.869 1917.68 323.627 1918.18 341.931C1918.66 360.208 1944.32 355.972 1942.69 336.885Z" fill="#FFC900" stroke="black" stroke-width="2" stroke-miterlimit="10" stroke-linecap="round" stroke-linejoin="round"/>
<path d="M1832.08 413.186C1832.08 413.186 1835.04 428.906 1842.14 437.379" stroke="black" stroke-width="2" stroke-miterlimit="10" stroke-linecap="round" stroke-linejoin="round"/>
<path d="M1849.97 400.159V416.908" stroke="black" stroke-width="2" stroke-miterlimit="10" stroke-linecap="round" stroke-linejoin="round"/>
<path d="M1877.92 374.105V394.576" stroke="black" stroke-width="2" stroke-miterlimit="10" stroke-linecap="round" stroke-linejoin="round"/>
<path d="M2006.49 312.691L2022.15 353.634" stroke="black" stroke-width="2" stroke-miterlimit="10" stroke-linecap="round" stroke-linejoin="round"/>
<path d="M2014.32 407.603C2014.32 407.603 2029.81 395.041 2044.51 407.603" stroke="black" stroke-width="2" stroke-miterlimit="10" stroke-linecap="round" stroke-linejoin="round"/>
<path d="M2093.7 420.63L2109.35 407.603" stroke="black" stroke-width="2" stroke-miterlimit="10" stroke-linecap="round" stroke-linejoin="round"/>
<path d="M2047.86 461.572L2076.93 465.294" stroke="black" stroke-width="2" stroke-miterlimit="10" stroke-linecap="round" stroke-linejoin="round"/>
<path d="M2164.14 426.213C2165.98 426.213 2201.03 420.63 2201.03 420.63" stroke="black" stroke-width="2" stroke-miterlimit="10" stroke-linecap="round" stroke-linejoin="round"/>
<path d="M2223.39 448.545L2243.52 439.24" stroke="black" stroke-width="2" stroke-miterlimit="10" stroke-linecap="round" stroke-linejoin="round"/>
<path d="M2379.92 422.491L2389.98 454.128" stroke="black" stroke-width="2" stroke-miterlimit="10" stroke-linecap="round" stroke-linejoin="round"/>
<path d="M2405.64 402.02L2406.75 431.796" stroke="black" stroke-width="2" stroke-miterlimit="10" stroke-linecap="round" stroke-linejoin="round"/>
<path d="M2439.18 396.437L2435.82 422.491" stroke="black" stroke-width="2" stroke-miterlimit="10" stroke-linecap="round" stroke-linejoin="round"/>
<path d="M2582.29 428.074L2604.65 416.908" stroke="black" stroke-width="2" stroke-miterlimit="10" stroke-linecap="round" stroke-linejoin="round"/>
<path d="M2648.25 416.908L2659.43 411.325" stroke="black" stroke-width="2" stroke-miterlimit="10" stroke-linecap="round" stroke-linejoin="round"/>
<path d="M2716.45 437.379C2716.45 437.379 2725.43 428.105 2735.46 428.074" stroke="black" stroke-width="2" stroke-miterlimit="10" stroke-linecap="round" stroke-linejoin="round"/>
<path d="M2791.36 416.908H2803.66" stroke="black" stroke-width="2" stroke-miterlimit="10" stroke-linecap="round" stroke-linejoin="round"/>
<path d="M2841.67 422.491L2861.8 420.63" stroke="black" stroke-width="2" stroke-miterlimit="10" stroke-linecap="round" stroke-linejoin="round"/>
<path d="M2895.34 444.823L2914.35 439.24" stroke="black" stroke-width="2" stroke-miterlimit="10" stroke-linecap="round" stroke-linejoin="round"/>
<path d="M2933.35 388.993L2946.77 426.213" stroke="black" stroke-width="2" stroke-miterlimit="10" stroke-linecap="round" stroke-linejoin="round"/>
<path d="M2951.24 374.105C2951.24 374.105 2952.13 399.743 2956.83 411.325" stroke="black" stroke-width="2" stroke-miterlimit="10" stroke-linecap="round" stroke-linejoin="round"/>
<path d="M2982.55 362.939C2982.55 362.939 2969.97 381.319 2982.55 402.02" stroke="black" stroke-width="2" stroke-miterlimit="10" stroke-linecap="round" stroke-linejoin="round"/>
<path d="M3018.33 336.885L3012.74 374.105" stroke="black" stroke-width="2" stroke-miterlimit="10" stroke-linecap="round" stroke-linejoin="round"/>
<path d="M2991.49 433.657C2991.49 433.657 3001.5 430.938 3008.26 432.073" stroke="black" stroke-width="2" stroke-miterlimit="10" stroke-linecap="round" stroke-linejoin="round"/>
<path d="M3045.16 448.545C3045.16 448.545 3052.43 444.533 3057.46 444.84" stroke="black" stroke-width="2" stroke-miterlimit="10" stroke-linecap="round" stroke-linejoin="round"/>
<path d="M3077.58 357.356C3077.58 357.356 3071.14 381.461 3073.72 390.854" stroke="black" stroke-width="2" stroke-miterlimit="10" stroke-linecap="round" stroke-linejoin="round"/>
<path d="M3105.53 351.773L3096.59 374.105" stroke="black" stroke-width="2" stroke-miterlimit="10" stroke-linecap="round" stroke-linejoin="round"/>
<path d="M3148.02 362.939C3148.02 362.939 3148.19 390.986 3152.49 394.576" stroke="black" stroke-width="2" stroke-miterlimit="10" stroke-linecap="round" stroke-linejoin="round"/>
<path d="M3174.85 346.19V374.105" stroke="black" stroke-width="2" stroke-miterlimit="10" stroke-linecap="round" stroke-linejoin="round"/>
<path d="M1947.24 496.932C1947.24 496.932 1936.66 527.481 1942.07 536.013" stroke="black" stroke-width="2" stroke-miterlimit="10" stroke-linecap="round" stroke-linejoin="round"/>
<path d="M1972.95 498.792C1972.95 498.792 1966.28 518.39 1967.51 526.708" stroke="black" stroke-width="2" stroke-miterlimit="10" stroke-linecap="round" stroke-linejoin="round"/>
<path d="M3258.71 390.854C3258.71 390.854 3258.01 434.285 3269.89 431.684" stroke="black" stroke-width="2" stroke-miterlimit="10" stroke-linecap="round" stroke-linejoin="round"/>
<path d="M3289.07 400.159C3289.07 400.159 3287.18 427.672 3295.6 428.074" stroke="black" stroke-width="2" stroke-miterlimit="10" stroke-linecap="round" stroke-linejoin="round"/>
<path d="M3317.96 377.827C3317.96 377.827 3317.62 401.341 3314.61 413.186" stroke="black" stroke-width="2" stroke-miterlimit="10" stroke-linecap="round" stroke-linejoin="round"/>
<path d="M3344.79 353.634C3344.79 353.634 3336.88 379.73 3338.24 388.993" stroke="black" stroke-width="2" stroke-miterlimit="10" stroke-linecap="round" stroke-linejoin="round"/>
<path d="M2024.38 502.515L2044.51 504.376" stroke="black" stroke-width="2" stroke-miterlimit="10" stroke-linecap="round" stroke-linejoin="round"/>
<path d="M2267 308.969L2279.3 346.19" stroke="black" stroke-width="2" stroke-miterlimit="10" stroke-linecap="round" stroke-linejoin="round"/>
<path d="M2288.24 307.108L2292.71 346.19" stroke="black" stroke-width="2" stroke-miterlimit="10" stroke-linecap="round" stroke-linejoin="round"/>
<path d="M2309.48 292.22V346.19" stroke="black" stroke-width="2" stroke-miterlimit="10" stroke-linecap="round" stroke-linejoin="round"/>
<path d="M2810.37 297.803L2800.31 346.19" stroke="black" stroke-width="2" stroke-miterlimit="10" stroke-linecap="round" stroke-linejoin="round"/>
<path d="M2780.18 295.942L2771.24 346.19" stroke="black" stroke-width="2" stroke-miterlimit="10" stroke-linecap="round" stroke-linejoin="round"/>
<path d="M2755.58 292.22V346.19" stroke="black" stroke-width="2" stroke-miterlimit="10" stroke-linecap="round" stroke-linejoin="round"/>
<path d="M2735.46 303.386C2735.87 303.901 2748.88 346.19 2748.88 346.19" stroke="black" stroke-width="2" stroke-miterlimit="10" stroke-linecap="round" stroke-linejoin="round"/>
<path d="M3768 123H1828.01V271H3768V123Z" fill="#FFC900"/>
<path d="M1996.65 129L2114.87 262.246" stroke="black" stroke-width="3" stroke-miterlimit="10" stroke-linecap="round"/>
<path d="M1984.58 129.677L2102.8 262.924" stroke="black" stroke-width="3" stroke-miterlimit="10" stroke-linecap="round"/>
<path d="M2156.27 128L2274.5 261.246" stroke="black" stroke-width="3" stroke-miterlimit="10" stroke-linecap="round"/>
<path d="M2144.2 128.677L2262.43 261.924" stroke="black" stroke-width="3" stroke-miterlimit="10" stroke-linecap="round"/>
<path d="M2315.9 127L2434.12 260.246" stroke="black" stroke-width="3" stroke-miterlimit="10" stroke-linecap="round"/>
<path d="M2303.83 127.677L2422.05 260.924" stroke="black" stroke-width="3" stroke-miterlimit="10" stroke-linecap="round"/>
<path d="M2475.53 126L2593.75 259.246" stroke="black" stroke-width="3" stroke-miterlimit="10" stroke-linecap="round"/>
<path d="M2463.46 126.677L2581.68 259.924" stroke="black" stroke-width="3" stroke-miterlimit="10" stroke-linecap="round"/>
<path d="M2635.15 125L2753.38 258.246" stroke="black" stroke-width="3" stroke-miterlimit="10" stroke-linecap="round"/>
<path d="M2623.08 125.677L2741.31 258.924" stroke="black" stroke-width="3" stroke-miterlimit="10" stroke-linecap="round"/>
<path d="M2794.78 124L2913 257.246" stroke="black" stroke-width="3" stroke-miterlimit="10" stroke-linecap="round"/>
<path d="M2782.71 124.677L2900.93 257.924" stroke="black" stroke-width="3" stroke-miterlimit="10" stroke-linecap="round"/>
<path d="M2954.41 123L3072.63 256.246" stroke="black" stroke-width="3" stroke-miterlimit="10" stroke-linecap="round"/>
<path d="M2942.34 123.677L3060.56 256.924" stroke="black" stroke-width="3" stroke-miterlimit="10" stroke-linecap="round"/>
<path d="M3114.03 132L3232.25 265.246" stroke="black" stroke-width="3" stroke-miterlimit="10" stroke-linecap="round"/>
<path d="M3101.96 132.677L3220.18 265.924" stroke="black" stroke-width="3" stroke-miterlimit="10" stroke-linecap="round"/>
<path d="M3289.62 132L3407.84 265.246" stroke="black" stroke-width="3" stroke-miterlimit="10" stroke-linecap="round"/>
<path d="M3277.55 132.677L3395.77 265.924" stroke="black" stroke-width="3" stroke-miterlimit="10" stroke-linecap="round"/>
<path d="M3449.25 130L3567.47 263.246" stroke="black" stroke-width="3" stroke-miterlimit="10" stroke-linecap="round"/>
<path d="M3437.17 130.677L3555.4 263.924" stroke="black" stroke-width="3" stroke-miterlimit="10" stroke-linecap="round"/>
<path d="M3733.1 264H1827.99M1827.99 129H3733.1H1827.99Z" stroke="black" stroke-width="3" stroke-linecap="square" stroke-linejoin="round"/>
<path d="M95 347C95 347 101.99 365.437 111 370" stroke="black" stroke-width="2" stroke-miterlimit="10" stroke-linecap="round" stroke-linejoin="round"/>
<path d="M980 510L988 537" stroke="black" stroke-width="2" stroke-miterlimit="10" stroke-linecap="round" stroke-linejoin="round"/>
<path d="M1007 513L1004 533" stroke="black" stroke-width="2" stroke-miterlimit="10" stroke-linecap="round" stroke-linejoin="round"/>
<path d="M349 354L362 382" stroke="black" stroke-width="2" stroke-miterlimit="10" stroke-linecap="round" stroke-linejoin="round"/>
<path d="M373 347C373 347 374.792 368.161 379 374" stroke="black" stroke-width="2" stroke-miterlimit="10" stroke-linecap="round" stroke-linejoin="round"/>
<path d="M1654 351C1654 351 1641.72 373.117 1649.69 379" stroke="black" stroke-width="2" stroke-miterlimit="10" stroke-linecap="round" stroke-linejoin="round"/>
<path d="M1740 354V378" stroke="black" stroke-width="2" stroke-miterlimit="10" stroke-linecap="round" stroke-linejoin="round"/>
<path d="M114 509H138" stroke="black" stroke-width="2" stroke-miterlimit="10" stroke-linecap="round" stroke-linejoin="round"/>
<path d="M169 509L189 506" stroke="black" stroke-width="2" stroke-miterlimit="10" stroke-linecap="round" stroke-linejoin="round"/>
<path d="M1807 379L1827 378" stroke="black" stroke-width="2" stroke-miterlimit="10" stroke-linecap="round" stroke-linejoin="round"/>
<path d="M1861 374H1873" stroke="black" stroke-width="2" stroke-miterlimit="10" stroke-linecap="round" stroke-linejoin="round"/>
<path d="M216 505C216 505 205.868 522.995 211.937 529" stroke="black" stroke-width="2" stroke-miterlimit="10" stroke-linecap="round" stroke-linejoin="round"/>
<path d="M1830 547H854.381C854.381 547 816.822 522.512 789.487 518.392C762.151 514.273 732.781 508.366 717.235 499.37C701.688 490.373 671.21 476.839 656.663 474.338C642.117 471.837 478.947 438.579 441.437 439.258C403.926 439.937 387.248 441.657 369.413 435.648C351.579 429.639 329.205 419.567 312.611 413.185C296.017 406.802 244.791 402.615 227.306 400.284C209.821 397.953 201.524 400.284 180.787 386.976C160.051 373.668 136.702 363.563 114.761 364.83C92.8208 366.098 70.4345 372.344 48.205 370.715C25.9754 369.085 2 365.589 2 365.589V12H1830V547Z" fill="#349948"/>
<path d="M958.882 546.749L2.00002 547V334.68C2.00002 334.68 12.4772 334.984 51.5325 339.615C82.774 343.319 136.944 326.147 168.753 339.615C187.882 347.698 251.739 373.663 221.652 369.209C254.38 377.663 319.744 373.416 345.645 385.084C406.087 369.209 413.791 380.864 468.663 385.084C523.535 389.305 641.49 403.858 618.615 424.151C733.881 424.151 797.361 476.619 797.361 476.619C836.348 498.977 813.124 501.623 842.527 504.825C910.945 512.299 958.882 546.749 958.882 546.749Z" fill="#90A8ED"/>
<path d="M1098 85L1116 80" stroke="black" stroke-width="2" stroke-miterlimit="10" stroke-linecap="round" stroke-linejoin="round"/>
<path d="M1350 99L1368 94" stroke="black" stroke-width="2" stroke-miterlimit="10" stroke-linecap="round" stroke-linejoin="round"/>
<path d="M1136 10L1147 30" stroke="black" stroke-width="2" stroke-miterlimit="10" stroke-linecap="round" stroke-linejoin="round"/>
<path d="M1389 24L1400 44" stroke="black" stroke-width="2" stroke-miterlimit="10" stroke-linecap="round" stroke-linejoin="round"/>
<path d="M1155 9L1159 30" stroke="black" stroke-width="2" stroke-miterlimit="10" stroke-linecap="round" stroke-linejoin="round"/>
<path d="M1408 23L1412 44" stroke="black" stroke-width="2" stroke-miterlimit="10" stroke-linecap="round" stroke-linejoin="round"/>
<path d="M1174 1V30" stroke="black" stroke-width="2" stroke-miterlimit="10" stroke-linecap="round" stroke-linejoin="round"/>
<path d="M1427 15V44" stroke="black" stroke-width="2" stroke-miterlimit="10" stroke-linecap="round" stroke-linejoin="round"/>
<path d="M634.812 63C612.787 67.6643 614.87 82.9193 634.259 85.6481C653.629 88.3793 656 74.3166 656 74.3166C656 74.3166 643.179 72.1091 634.812 63Z" fill="#AE9F66" stroke="black" stroke-width="2" stroke-miterlimit="10" stroke-linecap="round" stroke-linejoin="round"/>
<path d="M479 71L491 88" stroke="black" stroke-width="2" stroke-miterlimit="10" stroke-linecap="round" stroke-linejoin="round"/>
<path d="M509 60L510 76" stroke="black" stroke-width="2" stroke-miterlimit="10" stroke-linecap="round" stroke-linejoin="round"/>
<path d="M549 57L545 71" stroke="black" stroke-width="2" stroke-miterlimit="10" stroke-linecap="round" stroke-linejoin="round"/>
<path d="M345 10L360 30" stroke="black" stroke-width="2" stroke-miterlimit="10" stroke-linecap="round" stroke-linejoin="round"/>
<path d="M370 9L375 30" stroke="black" stroke-width="2" stroke-miterlimit="10" stroke-linecap="round" stroke-linejoin="round"/>
<path d="M395 1V30" stroke="black" stroke-width="2" stroke-miterlimit="10" stroke-linecap="round" stroke-linejoin="round"/>
<path d="M3768 125H2V273H3768V125Z" fill="#FFC900"/>
<path d="M283.056 131L515.647 264.246" stroke="black" stroke-width="3" stroke-miterlimit="10" stroke-linecap="round"/>
<path d="M259.31 131.677L491.901 264.924" stroke="black" stroke-width="3" stroke-miterlimit="10" stroke-linecap="round"/>
<path d="M33.7466 134L266.338 267.246" stroke="black" stroke-width="3" stroke-miterlimit="10" stroke-linecap="round"/>
<path d="M10 134.677L242.591 267.924" stroke="black" stroke-width="3" stroke-miterlimit="10" stroke-linecap="round"/>
<path d="M597.103 130L829.694 263.246" stroke="black" stroke-width="3" stroke-miterlimit="10" stroke-linecap="round"/>
<path d="M573.356 130.677L805.947 263.924" stroke="black" stroke-width="3" stroke-miterlimit="10" stroke-linecap="round"/>
<path d="M911.151 129L1143.74 262.246" stroke="black" stroke-width="3" stroke-miterlimit="10" stroke-linecap="round"/>
<path d="M887.403 129.677L1119.99 262.924" stroke="black" stroke-width="3" stroke-miterlimit="10" stroke-linecap="round"/>
<path d="M1225.2 128L1457.79 261.246" stroke="black" stroke-width="3" stroke-miterlimit="10" stroke-linecap="round"/>
<path d="M1201.45 128.677L1434.04 261.924" stroke="black" stroke-width="3" stroke-miterlimit="10" stroke-linecap="round"/>
<path d="M1539.25 127L1771.84 260.246" stroke="black" stroke-width="3" stroke-miterlimit="10" stroke-linecap="round"/>
<path d="M1515.5 127.677L1748.09 260.924" stroke="black" stroke-width="3" stroke-miterlimit="10" stroke-linecap="round"/>
<path d="M1853.29 126L2085.89 259.246" stroke="black" stroke-width="3" stroke-miterlimit="10" stroke-linecap="round"/>
<path d="M1829.54 126.677L2062.14 259.924" stroke="black" stroke-width="3" stroke-miterlimit="10" stroke-linecap="round"/>
<path d="M2167.34 125L2399.93 258.246" stroke="black" stroke-width="3" stroke-miterlimit="10" stroke-linecap="round"/>
<path d="M2143.59 125.677L2376.18 258.924" stroke="black" stroke-width="3" stroke-miterlimit="10" stroke-linecap="round"/>
<path d="M2481.39 134L2713.98 267.246" stroke="black" stroke-width="3" stroke-miterlimit="10" stroke-linecap="round"/>
<path d="M2457.64 134.677L2690.23 267.924" stroke="black" stroke-width="3" stroke-miterlimit="10" stroke-linecap="round"/>
<path d="M2826.84 134L3059.43 267.246" stroke="black" stroke-width="3" stroke-miterlimit="10" stroke-linecap="round"/>
<path d="M2803.09 134.677L3035.68 267.924" stroke="black" stroke-width="3" stroke-miterlimit="10" stroke-linecap="round"/>
<path d="M3140.89 132L3373.48 265.246" stroke="black" stroke-width="3" stroke-miterlimit="10" stroke-linecap="round"/>
<path d="M3117.14 132.677L3349.73 265.924" stroke="black" stroke-width="3" stroke-miterlimit="10" stroke-linecap="round"/>
<path d="M3446.81 128L3679.4 261.246" stroke="black" stroke-width="3" stroke-miterlimit="10" stroke-linecap="round"/>
<path d="M3423.06 128.677L3655.65 261.924" stroke="black" stroke-width="3" stroke-miterlimit="10" stroke-linecap="round"/>
<path d="M3772 266H2M2 131H3772H2Z" stroke="black" stroke-width="3" stroke-linecap="square" stroke-linejoin="round"/>
<path d="M1822.24 407C1799.62 411.664 1801.76 426.919 1821.67 429.648C1841.57 432.379 1844 418.317 1844 418.317C1844 418.317 1830.83 416.109 1822.24 407Z" fill="#AE9F66" stroke="black" stroke-width="2" stroke-miterlimit="10" stroke-linecap="round" stroke-linejoin="round"/>
<path d="M1149.92 369C1145.64 357.17 1121.44 361.876 1122.01 371.711C1122.56 381.533 1151.77 379.256 1149.92 369Z" fill="#FFC900" stroke="black" stroke-width="2" stroke-miterlimit="10" stroke-linecap="round" stroke-linejoin="round"/>
<path d="M1020 410C1020 410 1023.53 418.447 1032 423" stroke="black" stroke-width="2" stroke-miterlimit="10" stroke-linecap="round" stroke-linejoin="round"/>
<path d="M1041 403V412" stroke="black" stroke-width="2" stroke-miterlimit="10" stroke-linecap="round" stroke-linejoin="round"/>
<path d="M1074 389V400" stroke="black" stroke-width="2" stroke-miterlimit="10" stroke-linecap="round" stroke-linejoin="round"/>
<path d="M1225 356L1244 378" stroke="black" stroke-width="2" stroke-miterlimit="10" stroke-linecap="round" stroke-linejoin="round"/>
<path d="M1235 407C1235 407 1252.96 400.25 1270 407" stroke="black" stroke-width="2" stroke-miterlimit="10" stroke-linecap="round" stroke-linejoin="round"/>
<path d="M1329 414L1347 407" stroke="black" stroke-width="2" stroke-miterlimit="10" stroke-linecap="round" stroke-linejoin="round"/>
<path d="M1274 436L1309 438" stroke="black" stroke-width="2" stroke-miterlimit="10" stroke-linecap="round" stroke-linejoin="round"/>
<path d="M1412 417C1414.19 417 1456 414 1456 414" stroke="black" stroke-width="2" stroke-miterlimit="10" stroke-linecap="round" stroke-linejoin="round"/>
<path d="M1482 429L1506 424" stroke="black" stroke-width="2" stroke-miterlimit="10" stroke-linecap="round" stroke-linejoin="round"/>
<path d="M1666 415L1678 432" stroke="black" stroke-width="2" stroke-miterlimit="10" stroke-linecap="round" stroke-linejoin="round"/>
<path d="M1697 404L1698 420" stroke="black" stroke-width="2" stroke-miterlimit="10" stroke-linecap="round" stroke-linejoin="round"/>
<path d="M1736 401L1732 415" stroke="black" stroke-width="2" stroke-miterlimit="10" stroke-linecap="round" stroke-linejoin="round"/>
<path d="M1155 455C1155 455 1142.38 471.416 1148.84 476" stroke="black" stroke-width="2" stroke-miterlimit="10" stroke-linecap="round" stroke-linejoin="round"/>
<path d="M1186 456C1186 456 1177.64 466.531 1179.19 471" stroke="black" stroke-width="2" stroke-miterlimit="10" stroke-linecap="round" stroke-linejoin="round"/>
<path d="M1247 458L1270 459" stroke="black" stroke-width="2" stroke-miterlimit="10" stroke-linecap="round" stroke-linejoin="round"/>
<path d="M1534 354L1548 374" stroke="black" stroke-width="2" stroke-miterlimit="10" stroke-linecap="round" stroke-linejoin="round"/>
<path d="M1559 353L1564 374" stroke="black" stroke-width="2" stroke-miterlimit="10" stroke-linecap="round" stroke-linejoin="round"/>
<path d="M1583 345V374" stroke="black" stroke-width="2" stroke-miterlimit="10" stroke-linecap="round" stroke-linejoin="round"/>
</g>
<defs>
<clipPath id="clip0_37_457">
<rect width="3774" height="547" fill="white"/>
</clipPath>
</defs>
</svg>
