<svg width="1909" height="546" viewBox="0 0 1909 546" fill="none" xmlns="http://www.w3.org/2000/svg">
<path d="M4.64722 365.113C4.64722 365.113 11.5862 382.983 20.5305 387.405" stroke="black" stroke-width="2" stroke-miterlimit="10" stroke-linecap="round" stroke-linejoin="round"/>
<path d="M258.781 371.669L272.017 399.207" stroke="black" stroke-width="2" stroke-miterlimit="10" stroke-linecap="round" stroke-linejoin="round"/>
<path d="M282.606 365.113C282.606 365.113 284.582 385.667 289.224 391.339" stroke="black" stroke-width="2" stroke-miterlimit="10" stroke-linecap="round" stroke-linejoin="round"/>
<path d="M1566.51 369.047C1566.51 369.047 1554.89 390.799 1562.44 396.584" stroke="black" stroke-width="2" stroke-miterlimit="10" stroke-linecap="round" stroke-linejoin="round"/>
<path d="M1652.54 371.669V395.273" stroke="black" stroke-width="2" stroke-miterlimit="10" stroke-linecap="round" stroke-linejoin="round"/>
<path d="M23.1778 525.091H47.0028" stroke="black" stroke-width="2" stroke-miterlimit="10" stroke-linecap="round" stroke-linejoin="round"/>
<path d="M78.7694 525.091L98.6236 522.469" stroke="black" stroke-width="2" stroke-miterlimit="10" stroke-linecap="round" stroke-linejoin="round"/>
<path d="M1720.05 396.584L1739.9 395.273" stroke="black" stroke-width="2" stroke-miterlimit="10" stroke-linecap="round" stroke-linejoin="round"/>
<path d="M1774.32 391.339H1786.23" stroke="black" stroke-width="2" stroke-miterlimit="10" stroke-linecap="round" stroke-linejoin="round"/>
<path d="M125.096 521.158C125.096 521.158 116.155 538.855 121.511 544.761" stroke="black" stroke-width="2" stroke-miterlimit="10" stroke-linecap="round" stroke-linejoin="round"/>
<path d="M1907 546H890.285C890.285 546 851.144 521.008 822.658 516.804C794.171 512.6 763.563 506.572 747.362 497.39C731.161 488.209 699.399 474.396 684.239 471.844C669.08 469.292 499.038 435.349 459.947 436.042C420.856 436.735 403.475 438.491 384.89 432.358C366.304 426.226 342.988 415.947 325.695 409.434C308.402 402.92 255.018 398.647 236.796 396.268C218.575 393.889 209.928 396.268 188.318 382.686C166.709 369.105 142.376 358.791 119.511 360.085C96.6464 361.378 73.3171 367.753 50.1512 366.09C26.9854 364.427 2 360.859 2 360.859V0H1907V546Z" fill="#349948"/>
<path d="M999.188 545.744L2.00002 546V329.315C2.00002 329.315 12.9185 329.625 53.6189 334.351C86.1764 338.131 142.628 320.606 175.777 334.351C195.712 342.6 262.259 369.099 230.904 364.554C265.011 373.181 333.128 368.847 360.12 380.755C423.108 364.554 431.137 376.448 488.32 380.755C545.504 385.062 668.427 399.915 644.588 420.625C764.71 420.625 830.863 474.172 830.863 474.172C871.493 496.99 847.29 499.69 877.932 502.957C949.232 510.586 999.188 545.744 999.188 545.744Z" fill="#90A8ED"/>
<path d="M1009 105.088L1027 100.134" stroke="black" stroke-width="2" stroke-miterlimit="10" stroke-linecap="round" stroke-linejoin="round"/>
<path d="M1262 118.962L1280 114.007" stroke="black" stroke-width="2" stroke-miterlimit="10" stroke-linecap="round" stroke-linejoin="round"/>
<path d="M1048 30.7653L1059 50.5848" stroke="black" stroke-width="2" stroke-miterlimit="10" stroke-linecap="round" stroke-linejoin="round"/>
<path d="M1301 44.639L1312 64.4585" stroke="black" stroke-width="2" stroke-miterlimit="10" stroke-linecap="round" stroke-linejoin="round"/>
<path d="M1067 29.7744L1071 50.5848" stroke="black" stroke-width="2" stroke-miterlimit="10" stroke-linecap="round" stroke-linejoin="round"/>
<path d="M1320 43.648L1324 64.4585" stroke="black" stroke-width="2" stroke-miterlimit="10" stroke-linecap="round" stroke-linejoin="round"/>
<path d="M1086 21.8466V50.5848" stroke="black" stroke-width="2" stroke-miterlimit="10" stroke-linecap="round" stroke-linejoin="round"/>
<path d="M1339 35.7202V64.4585" stroke="black" stroke-width="2" stroke-miterlimit="10" stroke-linecap="round" stroke-linejoin="round"/>
<path d="M544.812 83.287C522.787 87.9092 524.87 103.027 544.259 105.731C563.629 108.437 566 94.5014 566 94.5014C566 94.5014 553.179 92.3139 544.812 83.287Z" fill="#AE9F66" stroke="black" stroke-width="2" stroke-miterlimit="10" stroke-linecap="round" stroke-linejoin="round"/>
<path d="M389 91.2148L401 108.061" stroke="black" stroke-width="2" stroke-miterlimit="10" stroke-linecap="round" stroke-linejoin="round"/>
<path d="M419 80.3141L420 96.1697" stroke="black" stroke-width="2" stroke-miterlimit="10" stroke-linecap="round" stroke-linejoin="round"/>
<path d="M459 77.3412L455 91.2148" stroke="black" stroke-width="2" stroke-miterlimit="10" stroke-linecap="round" stroke-linejoin="round"/>
<path d="M255 30.7653L270 50.5848" stroke="black" stroke-width="2" stroke-miterlimit="10" stroke-linecap="round" stroke-linejoin="round"/>
<path d="M280 29.7744L285 50.5848" stroke="black" stroke-width="2" stroke-miterlimit="10" stroke-linecap="round" stroke-linejoin="round"/>
<path d="M305 21.8466V50.5848" stroke="black" stroke-width="2" stroke-miterlimit="10" stroke-linecap="round" stroke-linejoin="round"/>
<path d="M1907 122.926H2V275.536H1907V122.926Z" fill="#FFC900"/>
<path d="M101.374 128.872L224.307 260.915" stroke="black" stroke-width="3" stroke-miterlimit="10" stroke-linecap="round"/>
<path d="M88.8232 129.543L211.756 261.587" stroke="black" stroke-width="3" stroke-miterlimit="10" stroke-linecap="round"/>
<path d="M267.36 127.881L390.292 259.924" stroke="black" stroke-width="3" stroke-miterlimit="10" stroke-linecap="round"/>
<path d="M254.808 128.552L377.741 260.596" stroke="black" stroke-width="3" stroke-miterlimit="10" stroke-linecap="round"/>
<path d="M433.345 126.89L556.278 258.934" stroke="black" stroke-width="3" stroke-miterlimit="10" stroke-linecap="round"/>
<path d="M420.794 127.561L543.726 259.605" stroke="black" stroke-width="3" stroke-miterlimit="10" stroke-linecap="round"/>
<path d="M599.33 125.899L722.263 257.943" stroke="black" stroke-width="3" stroke-miterlimit="10" stroke-linecap="round"/>
<path d="M586.779 126.57L709.712 258.614" stroke="black" stroke-width="3" stroke-miterlimit="10" stroke-linecap="round"/>
<path d="M765.315 124.908L888.248 256.952" stroke="black" stroke-width="3" stroke-miterlimit="10" stroke-linecap="round"/>
<path d="M752.764 125.579L875.697 257.623" stroke="black" stroke-width="3" stroke-miterlimit="10" stroke-linecap="round"/>
<path d="M931.301 123.917L1054.23 255.961" stroke="black" stroke-width="3" stroke-miterlimit="10" stroke-linecap="round"/>
<path d="M918.749 124.588L1041.68 256.632" stroke="black" stroke-width="3" stroke-miterlimit="10" stroke-linecap="round"/>
<path d="M1097.29 122.926L1220.22 254.97" stroke="black" stroke-width="3" stroke-miterlimit="10" stroke-linecap="round"/>
<path d="M1084.73 123.597L1207.67 255.641" stroke="black" stroke-width="3" stroke-miterlimit="10" stroke-linecap="round"/>
<path d="M1263.27 131.845L1386.2 263.888" stroke="black" stroke-width="3" stroke-miterlimit="10" stroke-linecap="round"/>
<path d="M1250.72 132.516L1373.65 264.56" stroke="black" stroke-width="3" stroke-miterlimit="10" stroke-linecap="round"/>
<path d="M1445.85 131.845L1568.79 263.888" stroke="black" stroke-width="3" stroke-miterlimit="10" stroke-linecap="round"/>
<path d="M1433.3 132.516L1556.24 264.56" stroke="black" stroke-width="3" stroke-miterlimit="10" stroke-linecap="round"/>
<path d="M1611.84 129.863L1734.77 261.906" stroke="black" stroke-width="3" stroke-miterlimit="10" stroke-linecap="round"/>
<path d="M1599.29 130.534L1722.22 262.578" stroke="black" stroke-width="3" stroke-miterlimit="10" stroke-linecap="round"/>
<path d="M1778 129.863L1900.93 261.906" stroke="black" stroke-width="3" stroke-miterlimit="10" stroke-linecap="round"/>
<path d="M1765.45 130.534L1888.38 262.578" stroke="black" stroke-width="3" stroke-miterlimit="10" stroke-linecap="round"/>
<path d="M1907 262.653H2M2 128.872H1907H2Z" stroke="black" stroke-width="3" stroke-linecap="square" stroke-linejoin="round"/>
<path d="M1735.24 424.182C1712.62 428.805 1714.76 443.922 1734.67 446.626C1754.57 449.333 1757 435.397 1757 435.397C1757 435.397 1743.83 433.209 1735.24 424.182Z" fill="#AE9F66" stroke="black" stroke-width="2" stroke-miterlimit="10" stroke-linecap="round" stroke-linejoin="round"/>
<path d="M1061.91 386.526C1057.48 374.802 1032.42 379.466 1033.01 389.212C1033.58 398.945 1063.83 396.689 1061.91 386.526Z" fill="#FFC900" stroke="black" stroke-width="2" stroke-miterlimit="10" stroke-linecap="round" stroke-linejoin="round"/>
<path d="M931 427.155C931 427.155 934.531 435.526 943 440.038" stroke="black" stroke-width="2" stroke-miterlimit="10" stroke-linecap="round" stroke-linejoin="round"/>
<path d="M952 420.218V429.137" stroke="black" stroke-width="2" stroke-miterlimit="10" stroke-linecap="round" stroke-linejoin="round"/>
<path d="M985 406.345V417.245" stroke="black" stroke-width="2" stroke-miterlimit="10" stroke-linecap="round" stroke-linejoin="round"/>
<path d="M1137 373.643L1156 395.444" stroke="black" stroke-width="2" stroke-miterlimit="10" stroke-linecap="round" stroke-linejoin="round"/>
<path d="M1147 424.182C1147 424.182 1164.96 417.493 1182 424.182" stroke="black" stroke-width="2" stroke-miterlimit="10" stroke-linecap="round" stroke-linejoin="round"/>
<path d="M1241 431.119L1259 424.182" stroke="black" stroke-width="2" stroke-miterlimit="10" stroke-linecap="round" stroke-linejoin="round"/>
<path d="M1186 452.921L1221 454.903" stroke="black" stroke-width="2" stroke-miterlimit="10" stroke-linecap="round" stroke-linejoin="round"/>
<path d="M1324 434.092C1326.19 434.092 1368 431.119 1368 431.119" stroke="black" stroke-width="2" stroke-miterlimit="10" stroke-linecap="round" stroke-linejoin="round"/>
<path d="M1394 445.984L1418 441.029" stroke="black" stroke-width="2" stroke-miterlimit="10" stroke-linecap="round" stroke-linejoin="round"/>
<path d="M1579 432.11L1591 448.957" stroke="black" stroke-width="2" stroke-miterlimit="10" stroke-linecap="round" stroke-linejoin="round"/>
<path d="M1610 421.209L1611 437.065" stroke="black" stroke-width="2" stroke-miterlimit="10" stroke-linecap="round" stroke-linejoin="round"/>
<path d="M1649 418.236L1645 432.11" stroke="black" stroke-width="2" stroke-miterlimit="10" stroke-linecap="round" stroke-linejoin="round"/>
<path d="M1067 471.749C1067 471.749 1054.38 488.017 1060.84 492.56" stroke="black" stroke-width="2" stroke-miterlimit="10" stroke-linecap="round" stroke-linejoin="round"/>
<path d="M1098 472.74C1098 472.74 1089.64 483.176 1091.19 487.605" stroke="black" stroke-width="2" stroke-miterlimit="10" stroke-linecap="round" stroke-linejoin="round"/>
<path d="M1159 474.722L1182 475.713" stroke="black" stroke-width="2" stroke-miterlimit="10" stroke-linecap="round" stroke-linejoin="round"/>
<path d="M1446 371.661L1460 391.48" stroke="black" stroke-width="2" stroke-miterlimit="10" stroke-linecap="round" stroke-linejoin="round"/>
<path d="M1471 370.67L1476 391.48" stroke="black" stroke-width="2" stroke-miterlimit="10" stroke-linecap="round" stroke-linejoin="round"/>
<path d="M1496 362.742V391.48" stroke="black" stroke-width="2" stroke-miterlimit="10" stroke-linecap="round" stroke-linejoin="round"/>
</svg>
