<svg width="1440" height="876" viewBox="0 0 1440 876" fill="none" xmlns="http://www.w3.org/2000/svg">
<g clip-path="url(#clip0_15_85)">
<path d="M871.53 644.516C872.908 644.516 874.027 643.352 874.027 641.916C874.027 640.478 872.908 639.314 871.53 639.314C870.152 639.314 869.035 640.478 869.035 641.916C869.035 643.352 870.152 644.516 871.53 644.516Z" fill="#FBFBF9"/>
<path d="M964.891 683.53C968.749 683.53 971.88 681.008 971.88 677.895C971.88 674.784 968.749 672.26 964.891 672.26C961.029 672.26 957.901 674.784 957.901 677.895C957.901 681.008 961.029 683.53 964.891 683.53Z" fill="#FBFBF9"/>
<path d="M48.7704 133.864C52.356 133.864 55.2606 131.341 55.2606 128.229C55.2606 125.116 52.356 122.594 48.7704 122.594C45.1875 122.594 42.2802 125.116 42.2802 128.229C42.2802 131.341 45.1875 133.864 48.7704 133.864Z" fill="#FBFBF9"/>
<path d="M922.952 612.438C924.608 612.438 925.949 611.273 925.949 609.838C925.949 608.4 924.608 607.236 922.952 607.236C921.299 607.236 919.958 608.4 919.958 609.838C919.958 611.273 921.299 612.438 922.952 612.438Z" fill="#FBFBF9"/>
<path d="M7.33434 64.5059C8.98731 64.5059 10.3284 62.9531 10.3284 61.0378C10.3284 59.1225 8.98731 57.5701 7.33434 57.5701C5.67844 57.5701 4.3374 59.1225 4.3374 61.0378C4.3374 62.9531 5.67844 64.5059 7.33434 64.5059Z" fill="#FBFBF9"/>
<path d="M986.36 623.708C988.289 623.708 989.853 622.544 989.853 621.109C989.853 619.671 988.289 618.507 986.36 618.507C984.428 618.507 982.864 619.671 982.864 621.109C982.864 622.544 984.428 623.708 986.36 623.708Z" fill="#FBFBF9"/>
<path d="M70.7357 75.7767C72.6648 75.7767 74.232 74.224 74.232 72.3087C74.232 70.3935 72.6648 68.8408 70.7357 68.8408C68.8066 68.8408 67.2426 70.3935 67.2426 72.3087C67.2426 74.224 68.8066 75.7767 70.7357 75.7767Z" fill="#FBFBF9"/>
<path d="M984.86 556.951C987.067 556.951 988.854 555.591 988.854 553.915C988.854 552.242 987.067 550.882 984.86 550.882C982.654 550.882 980.866 552.242 980.866 553.915C980.866 555.591 982.654 556.951 984.86 556.951Z" fill="#FBFBF9"/>
<path d="M68.7404 8.15216C70.6711 8.15216 72.2351 6.59951 72.2351 4.68423C72.2351 2.76893 70.6711 1.21631 68.7404 1.21631C66.8096 1.21631 65.2456 2.76893 65.2456 4.68423C65.2456 6.59951 66.8096 8.15216 68.7404 8.15216Z" fill="#FBFBF9"/>
<path d="M1077.22 531.809C1080.81 531.809 1083.71 530.646 1083.71 529.208C1083.71 527.772 1080.81 526.607 1077.22 526.607C1073.64 526.607 1070.73 527.772 1070.73 529.208C1070.73 530.646 1073.64 531.809 1077.22 531.809Z" fill="#FBFBF9"/>
<path d="M1145.12 562.153C1147.05 562.153 1148.61 560.795 1148.61 559.118C1148.61 557.442 1147.05 556.084 1145.12 556.084C1143.19 556.084 1141.62 557.442 1141.62 559.118C1141.62 560.795 1143.19 562.153 1145.12 562.153Z" fill="#FBFBF9"/>
<path d="M228.999 15.0879C231.205 15.0879 232.993 13.5353 232.993 11.62C232.993 9.70474 231.205 8.1521 228.999 8.1521C226.792 8.1521 225.005 9.70474 225.005 11.62C225.005 13.5353 226.792 15.0879 228.999 15.0879Z" fill="#FBFBF9"/>
<path d="M1119.66 608.103C1121.31 608.103 1122.65 607.326 1122.65 606.369C1122.65 605.412 1121.31 604.635 1119.66 604.635C1118 604.635 1116.66 605.412 1116.66 606.369C1116.66 607.326 1118 608.103 1119.66 608.103Z" fill="#FBFBF9"/>
<path d="M203.537 61.9049C205.466 61.9049 207.032 60.7404 207.032 59.3039C207.032 57.8675 205.466 56.703 203.537 56.703C201.605 56.703 200.043 57.8675 200.043 59.3039C200.043 60.7404 201.605 61.9049 203.537 61.9049Z" fill="#FBFBF9"/>
<path d="M1159.1 624.575C1161.03 624.575 1162.59 623.217 1162.59 621.542C1162.59 619.865 1161.03 618.507 1159.1 618.507C1157.17 618.507 1155.6 619.865 1155.6 621.542C1155.6 623.217 1157.17 624.575 1159.1 624.575Z" fill="#FBFBF9"/>
<path d="M243.476 77.5106C245.408 77.5106 246.972 76.1522 246.972 74.4762C246.972 72.8002 245.408 71.4418 243.476 71.4418C241.547 71.4418 239.982 72.8002 239.982 74.4762C239.982 76.1522 241.547 77.5106 243.476 77.5106Z" fill="#FBFBF9"/>
<path d="M1244.97 528.341C1246.9 528.341 1248.46 527.177 1248.46 525.741C1248.46 524.305 1246.9 523.139 1244.97 523.139C1243.04 523.139 1241.47 524.305 1241.47 525.741C1241.47 527.177 1243.04 528.341 1244.97 528.341Z" fill="#FBFBF9"/>
<path d="M1275.42 751.155C1277.08 751.155 1278.42 749.99 1278.42 748.553C1278.42 747.117 1277.08 745.953 1275.42 745.953C1273.77 745.953 1272.43 747.117 1272.43 748.553C1272.43 749.99 1273.77 751.155 1275.42 751.155Z" fill="#FBFBF9"/>
<path d="M1435.68 211.893C1437.61 211.893 1439.18 210.728 1439.18 209.292C1439.18 207.855 1437.61 206.691 1435.68 206.691C1433.75 206.691 1432.19 207.855 1432.19 209.292C1432.19 210.728 1433.75 211.893 1435.68 211.893Z" fill="#FBFBF9"/>
<path d="M1412.22 198.021C1414.42 198.021 1416.21 196.662 1416.21 194.986C1416.21 193.311 1414.42 191.952 1412.22 191.952C1410.01 191.952 1408.22 193.311 1408.22 194.986C1408.22 196.662 1410.01 198.021 1412.22 198.021Z" fill="#FBFBF9"/>
<path d="M1434.19 152.071C1436.39 152.071 1438.18 150.518 1438.18 148.603C1438.18 146.688 1436.39 145.135 1434.19 145.135C1431.98 145.135 1430.19 146.688 1430.19 148.603C1430.19 150.518 1431.98 152.071 1434.19 152.071Z" fill="#FBFBF9"/>
<path d="M1372.28 144.268C1373.93 144.268 1375.27 143.104 1375.27 141.667C1375.27 140.231 1373.93 139.066 1372.28 139.066C1370.62 139.066 1369.28 140.231 1369.28 141.667C1369.28 143.104 1370.62 144.268 1372.28 144.268Z" fill="#FBFBF9"/>
<path d="M1091.2 672.259C1093.68 672.259 1095.69 670.319 1095.69 667.926C1095.69 665.53 1093.68 663.59 1091.2 663.59C1088.72 663.59 1086.71 665.53 1086.71 667.926C1086.71 670.319 1088.72 672.259 1091.2 672.259Z" fill="#FBFBF9"/>
<path d="M1078.22 714.741C1080.15 714.741 1081.71 713.382 1081.71 711.706C1081.71 710.03 1080.15 708.673 1078.22 708.673C1076.29 708.673 1074.73 710.03 1074.73 711.706C1074.73 713.382 1076.29 714.741 1078.22 714.741Z" fill="#FBFBF9"/>
<path d="M1064.24 748.554C1066.72 748.554 1068.73 746.808 1068.73 744.652C1068.73 742.497 1066.72 740.751 1064.24 740.751C1061.76 740.751 1059.75 742.497 1059.75 744.652C1059.75 746.808 1061.76 748.554 1064.24 748.554Z" fill="#FBFBF9"/>
<path d="M946.918 753.756C949.123 753.756 950.912 752.203 950.912 750.288C950.912 748.373 949.123 746.82 946.918 746.82C944.713 746.82 942.924 748.373 942.924 750.288C942.924 752.203 944.713 753.756 946.918 753.756Z" fill="#FBFBF9"/>
<path d="M887.507 718.209C889.437 718.209 891.002 717.045 891.002 715.609C891.002 714.172 889.437 713.008 887.507 713.008C885.577 713.008 884.012 714.172 884.012 715.609C884.012 717.045 885.577 718.209 887.507 718.209Z" fill="#FBFBF9"/>
<path d="M840.079 757.224C841.181 757.224 842.076 756.447 842.076 755.49C842.076 754.532 841.181 753.756 840.079 753.756C838.976 753.756 838.082 754.532 838.082 755.49C838.082 756.447 838.976 757.224 840.079 757.224Z" fill="#FBFBF9"/>
<path d="M834.086 713.008C836.294 713.008 838.082 711.648 838.082 709.973C838.082 708.296 836.294 706.939 834.086 706.939C831.881 706.939 830.094 708.296 830.094 709.973C830.094 711.648 831.881 713.008 834.086 713.008Z" fill="#FBFBF9"/>
<path d="M728.247 743.352C729.904 743.352 731.242 742.575 731.242 741.618C731.242 740.659 729.904 739.884 728.247 739.884C726.593 739.884 725.251 740.659 725.251 741.618C725.251 742.575 726.593 743.352 728.247 743.352Z" fill="#FBFBF9"/>
<path d="M653.361 709.54C656.118 709.54 658.352 707.6 658.352 705.204C658.352 702.81 656.118 700.87 653.361 700.87C650.604 700.87 648.367 702.81 648.367 705.204C648.367 707.6 650.604 709.54 653.361 709.54Z" fill="#FBFBF9"/>
<path d="M570.984 713.008C573.465 713.008 575.477 711.649 575.477 709.973C575.477 708.298 573.465 706.939 570.984 706.939C568.503 706.939 566.491 708.298 566.491 709.973C566.491 711.649 568.503 713.008 570.984 713.008Z" fill="#FBFBF9"/>
<path d="M334.839 585.561C336.495 585.561 337.835 584.784 337.835 583.827C337.835 582.869 336.495 582.094 334.839 582.094C333.187 582.094 331.844 582.869 331.844 583.827C331.844 584.784 333.187 585.561 334.839 585.561Z" fill="#FBFBF9"/>
<path d="M287.975 659.798C289.666 656.858 288.998 653.649 286.479 652.632C283.963 651.612 280.55 653.17 278.859 656.108C277.168 659.049 277.838 662.26 280.354 663.277C282.871 664.297 286.284 662.738 287.975 659.798Z" fill="#FBFBF9"/>
<path d="M330.345 652.319C332.274 652.319 333.841 650.961 333.841 649.285C333.841 647.608 332.274 646.25 330.345 646.25C328.415 646.25 326.852 647.608 326.852 649.285C326.852 650.961 328.415 652.319 330.345 652.319Z" fill="#FBFBF9"/>
<path d="M273.432 719.943C275.362 719.943 276.927 718.391 276.927 716.476C276.927 714.56 275.362 713.008 273.432 713.008C271.502 713.008 269.937 714.56 269.937 716.476C269.937 718.391 271.502 719.943 273.432 719.943Z" fill="#FBFBF9"/>
<path d="M233.991 690.466C235.645 690.466 236.987 689.496 236.987 688.3C236.987 687.101 235.645 686.131 233.991 686.131C232.338 686.131 230.996 687.101 230.996 688.3C230.996 689.496 232.338 690.466 233.991 690.466Z" fill="#FBFBF9"/>
<path d="M221.011 739.884C222.665 739.884 224.006 738.719 224.006 737.282C224.006 735.847 222.665 734.682 221.011 734.682C219.357 734.682 218.016 735.847 218.016 737.282C218.016 738.719 219.357 739.884 221.011 739.884Z" fill="#FBFBF9"/>
<path d="M357.805 719.943C359.458 719.943 360.8 719.361 360.8 718.643C360.8 717.924 359.458 717.343 357.805 717.343C356.148 717.343 354.809 717.924 354.809 718.643C354.809 719.361 356.148 719.943 357.805 719.943Z" fill="#FBFBF9"/>
<path d="M374.781 743.352C376.433 743.352 377.775 742.576 377.775 741.618C377.775 740.66 376.433 739.884 374.781 739.884C373.126 739.884 371.784 740.66 371.784 741.618C371.784 742.576 373.126 743.352 374.781 743.352Z" fill="#FBFBF9"/>
<path d="M46.2726 732.081C48.4794 732.081 50.2681 730.725 50.2681 729.048C50.2681 727.371 48.4794 726.012 46.2726 726.012C44.0688 726.012 42.2802 727.371 42.2802 729.048C42.2802 730.725 44.0688 732.081 46.2726 732.081Z" fill="#FBFBF9"/>
<path d="M35.7883 700.87C37.7184 700.87 39.2846 698.54 39.2846 695.668C39.2846 692.796 37.7184 690.466 35.7883 690.466C33.8583 690.466 32.2952 692.796 32.2952 695.668C32.2952 698.54 33.8583 700.87 35.7883 700.87Z" fill="#FBFBF9"/>
<path d="M60.7523 657.521C62.6835 657.521 64.247 655.969 64.247 654.053C64.247 652.136 62.6835 650.585 60.7523 650.585C58.8211 650.585 57.2576 652.136 57.2576 654.053C57.2576 655.969 58.8211 657.521 60.7523 657.521Z" fill="#FBFBF9"/>
<path d="M853.059 150.337C855.265 150.337 857.053 147.814 857.053 144.702C857.053 141.589 855.265 139.066 853.059 139.066C850.853 139.066 849.065 141.589 849.065 144.702C849.065 147.814 850.853 150.337 853.059 150.337Z" fill="#FBFBF9"/>
<path d="M944.922 155.539C946.575 155.539 947.916 153.792 947.916 151.637C947.916 149.483 946.575 147.736 944.922 147.736C943.266 147.736 941.925 149.483 941.925 151.637C941.925 153.792 943.266 155.539 944.922 155.539Z" fill="#FBFBF9"/>
<path d="M1006.83 178.08C1009.03 178.08 1010.82 176.14 1010.82 173.745C1010.82 171.351 1009.03 169.411 1006.83 169.411C1004.62 169.411 1002.83 171.351 1002.83 173.745C1002.83 176.14 1004.62 178.08 1006.83 178.08Z" fill="#FBFBF9"/>
<path d="M932.94 224.03C935.143 224.03 936.933 222.672 936.933 220.996C936.933 219.32 935.143 217.961 932.94 217.961C930.734 217.961 928.945 219.32 928.945 220.996C928.945 222.672 930.734 224.03 932.94 224.03Z" fill="#FBFBF9"/>
<path d="M853.059 212.76C855.265 212.76 857.053 210.819 857.053 208.425C857.053 206.03 855.265 204.09 853.059 204.09C850.853 204.09 849.065 206.03 849.065 208.425C849.065 210.819 850.853 212.76 853.059 212.76Z" fill="#FBFBF9"/>
<path d="M975.375 293.389C976.753 293.389 977.871 292.226 977.871 290.788C977.871 289.352 976.753 288.187 975.375 288.187C973.997 288.187 972.878 289.352 972.878 290.788C972.878 292.226 973.997 293.389 975.375 293.389Z" fill="#FBFBF9"/>
<path d="M923.952 351.477C925.606 351.477 926.948 349.923 926.948 348.009C926.948 346.094 925.606 344.541 923.952 344.541C922.299 344.541 920.957 346.094 920.957 348.009C920.957 349.923 922.299 351.477 923.952 351.477Z" fill="#FBFBF9"/>
<path d="M899.487 409.564C900.867 409.564 901.985 408.401 901.985 406.963C901.985 405.525 900.867 404.362 899.487 404.362C898.108 404.362 896.993 405.525 896.993 406.963C896.993 408.401 898.108 409.564 899.487 409.564Z" fill="#FBFBF9"/>
<path d="M537.536 327.201C539.74 327.201 541.528 325.648 541.528 323.735C541.528 321.818 539.74 320.265 537.536 320.265C535.329 320.265 533.54 321.818 533.54 323.735C533.54 325.648 535.329 327.201 537.536 327.201Z" fill="#FBFBF9"/>
<path d="M548.518 245.705C550.174 245.705 551.513 244.54 551.513 243.103C551.513 241.668 550.174 240.503 548.518 240.503C546.864 240.503 545.522 241.668 545.522 243.103C545.522 244.54 546.864 245.705 548.518 245.705Z" fill="#FBFBF9"/>
<path d="M485.113 269.113C487.596 269.113 489.606 266.591 489.606 263.479C489.606 260.365 487.596 257.843 485.113 257.843C482.633 257.843 480.62 260.365 480.62 263.479C480.62 266.591 482.633 269.113 485.113 269.113Z" fill="#FBFBF9"/>
<path d="M601.937 214.494C603.315 214.494 604.434 213.329 604.434 211.893C604.434 210.456 603.315 209.292 601.937 209.292C600.559 209.292 599.441 210.456 599.441 211.893C599.441 213.329 600.559 214.494 601.937 214.494Z" fill="#FBFBF9"/>
<path d="M646.372 195.42C648.026 195.42 649.366 194.256 649.366 192.819C649.366 191.383 648.026 190.218 646.372 190.218C644.715 190.218 643.375 191.383 643.375 192.819C643.375 194.256 644.715 195.42 646.372 195.42Z" fill="#FBFBF9"/>
<path d="M697.292 152.071C698.947 152.071 700.289 151.101 700.289 149.904C700.289 148.707 698.947 147.736 697.292 147.736C695.64 147.736 694.298 148.707 694.298 149.904C694.298 151.101 695.64 152.071 697.292 152.071Z" fill="#FBFBF9"/>
<path d="M571.982 158.14C574.464 158.14 576.476 156.393 576.476 154.238C576.476 152.084 574.464 150.337 571.982 150.337C569.501 150.337 567.489 152.084 567.489 154.238C567.489 156.393 569.501 158.14 571.982 158.14Z" fill="#FBFBF9"/>
<path d="M456.656 198.021C458.861 198.021 460.65 196.662 460.65 194.986C460.65 193.311 458.861 191.952 456.656 191.952C454.448 191.952 452.662 193.311 452.662 194.986C452.662 196.662 454.448 198.021 456.656 198.021Z" fill="#FBFBF9"/>
<path d="M352.811 186.75C354.466 186.75 355.808 185.586 355.808 184.149C355.808 182.713 354.466 181.548 352.811 181.548C351.159 181.548 349.817 182.713 349.817 184.149C349.817 185.586 351.159 186.75 352.811 186.75Z" fill="#FBFBF9"/>
<path d="M256.955 212.76C258.611 212.76 259.952 211.789 259.952 210.592C259.952 209.395 258.611 208.425 256.955 208.425C255.303 208.425 253.961 209.395 253.961 210.592C253.961 211.789 255.303 212.76 256.955 212.76Z" fill="#FBFBF9"/>
<path d="M259.453 156.406C260.833 156.406 261.949 155.63 261.949 154.672C261.949 153.714 260.833 152.938 259.453 152.938C258.075 152.938 256.957 153.714 256.957 154.672C256.957 155.63 258.075 156.406 259.453 156.406Z" fill="#FBFBF9"/>
<path d="M327.351 276.916C329.281 276.916 330.846 275.558 330.846 273.882C330.846 272.206 329.281 270.847 327.351 270.847C325.421 270.847 323.856 272.206 323.856 273.882C323.856 275.558 325.421 276.916 327.351 276.916Z" fill="#FBFBF9"/>
<path d="M260.453 304.66C262.382 304.66 263.946 303.107 263.946 301.19C263.946 299.276 262.382 297.724 260.453 297.724C258.521 297.724 256.957 299.276 256.957 301.19C256.957 303.107 258.521 304.66 260.453 304.66Z" fill="#FBFBF9"/>
<path d="M167.59 325.467C169.521 325.467 171.086 323.332 171.086 320.7C171.086 318.065 169.521 315.93 167.59 315.93C165.662 315.93 164.097 318.065 164.097 320.7C164.097 323.332 165.662 325.467 167.59 325.467Z" fill="#FBFBF9"/>
<path d="M236.987 362.747C239.195 362.747 240.981 361.194 240.981 359.278C240.981 357.364 239.195 355.811 236.987 355.811C234.782 355.811 232.993 357.364 232.993 359.278C232.993 361.194 234.782 362.747 236.987 362.747Z" fill="#FBFBF9"/>
<path d="M225.005 427.771C226.108 427.771 227.002 426.801 227.002 425.603C227.002 424.406 226.108 423.436 225.005 423.436C223.902 423.436 223.008 424.406 223.008 425.603C223.008 426.801 223.902 427.771 225.005 427.771Z" fill="#FBFBF9"/>
<path d="M130.647 245.705C132.578 245.705 134.142 243.956 134.142 241.804C134.142 239.648 132.578 237.902 130.647 237.902C128.716 237.902 127.152 239.648 127.152 241.804C127.152 243.956 128.716 245.705 130.647 245.705Z" fill="#FBFBF9"/>
<path d="M183.067 175.479C184.722 175.479 186.064 173.539 186.064 171.144C186.064 168.75 184.722 166.81 183.067 166.81C181.412 166.81 180.073 168.75 180.073 171.144C180.073 173.539 181.412 175.479 183.067 175.479Z" fill="#FBFBF9"/>
<path d="M79.2232 195.42C80.8769 195.42 82.2201 194.061 82.2201 192.386C82.2201 190.71 80.8769 189.351 79.2232 189.351C77.5694 189.351 76.2291 190.71 76.2291 192.386C76.2291 194.061 77.5694 195.42 79.2232 195.42Z" fill="#FBFBF9"/>
<path d="M1145.62 771.095C1147.82 771.095 1149.61 768.573 1149.61 765.461C1149.61 762.349 1147.82 759.824 1145.62 759.824C1143.41 759.824 1141.62 762.349 1141.62 765.461C1141.62 768.573 1143.41 771.095 1145.62 771.095Z" fill="#FBFBF9"/>
<path d="M1236.98 776.297C1238.91 776.297 1240.48 774.746 1240.48 772.829C1240.48 770.916 1238.91 769.361 1236.98 769.361C1235.05 769.361 1233.49 770.916 1233.49 772.829C1233.49 774.746 1235.05 776.297 1236.98 776.297Z" fill="#FBFBF9"/>
<path d="M1298.89 798.839C1301.37 798.839 1303.38 797.286 1303.38 795.372C1303.38 793.455 1301.37 791.903 1298.89 791.903C1296.41 791.903 1294.39 793.455 1294.39 795.372C1294.39 797.286 1296.41 798.839 1298.89 798.839Z" fill="#FBFBF9"/>
<path d="M1225 845.656C1226.93 845.656 1228.49 844.686 1228.49 843.488C1228.49 842.29 1226.93 841.321 1225 841.321C1223.07 841.321 1221.5 842.29 1221.5 843.488C1221.5 844.686 1223.07 845.656 1225 845.656Z" fill="#FBFBF9"/>
<path d="M1145.62 834.385C1147.82 834.385 1149.61 832.832 1149.61 830.917C1149.61 829.002 1147.82 827.449 1145.62 827.449C1143.41 827.449 1141.62 829.002 1141.62 830.917C1141.62 832.832 1143.41 834.385 1145.62 834.385Z" fill="#FBFBF9"/>
<path d="M906.979 876C909.734 876 911.97 873.283 911.97 869.931C911.97 866.579 909.734 863.862 906.979 863.862C904.221 863.862 901.985 866.579 901.985 869.931C901.985 873.283 904.221 876 906.979 876Z" fill="#FBFBF9"/>
<path d="M841.077 868.197C842.73 868.197 844.073 866.646 844.073 864.729C844.073 862.815 842.73 861.261 841.077 861.261C839.421 861.261 838.082 862.815 838.082 864.729C838.082 866.646 839.421 868.197 841.077 868.197Z" fill="#FBFBF9"/>
<path d="M894.996 836.119C896.649 836.119 897.991 834.956 897.991 833.519C897.991 832.08 896.649 830.917 894.996 830.917C893.342 830.917 892 832.08 892 833.519C892 834.956 893.342 836.119 894.996 836.119Z" fill="#FBFBF9"/>
<path d="M35.7899 695.668C37.1679 695.668 38.2862 694.505 38.2862 693.067C38.2862 691.631 37.1679 690.466 35.7899 690.466C34.412 690.466 33.2937 691.631 33.2937 693.067C33.2937 694.505 34.412 695.668 35.7899 695.668Z" fill="#FBFBF9"/>
<path d="M939.427 816.178C941.357 816.178 942.924 815.209 942.924 814.012C942.924 812.813 941.357 811.844 939.427 811.844C937.498 811.844 935.934 812.813 935.934 814.012C935.934 815.209 937.498 816.178 939.427 816.178Z" fill="#FBFBF9"/>
<path d="M988.854 774.563C990.511 774.563 991.85 773.398 991.85 771.962C991.85 770.524 990.511 769.361 988.854 769.361C987.201 769.361 985.859 770.524 985.859 771.962C985.859 773.398 987.201 774.563 988.854 774.563Z" fill="#FBFBF9"/>
<path d="M130.149 634.979C131.802 634.979 133.143 633.814 133.143 632.378C133.143 630.94 131.802 629.777 130.149 629.777C128.494 629.777 127.152 630.94 127.152 632.378C127.152 633.814 128.494 634.979 130.149 634.979Z" fill="#FBFBF9"/>
<path d="M864.542 779.765C867.023 779.765 869.035 777.824 869.035 775.43C869.035 773.036 867.023 771.095 864.542 771.095C862.06 771.095 860.049 773.036 860.049 775.43C860.049 777.824 862.06 779.765 864.542 779.765Z" fill="#FBFBF9"/>
<path d="M5.83503 639.314C8.31667 639.314 10.3283 637.956 10.3283 636.28C10.3283 634.604 8.31667 633.245 5.83503 633.245C3.35339 633.245 1.3418 634.604 1.3418 636.28C1.3418 637.956 3.35339 639.314 5.83503 639.314Z" fill="#FBFBF9"/>
<path d="M748.718 819.646C750.646 819.646 752.211 818.289 752.211 816.612C752.211 814.937 750.646 813.577 748.718 813.577C746.787 813.577 745.222 814.937 745.222 816.612C745.222 818.289 746.787 819.646 748.718 819.646Z" fill="#FBFBF9"/>
<path d="M644.373 810.109C646.027 810.109 647.369 808.556 647.369 806.643C647.369 804.727 646.027 803.174 644.373 803.174C642.717 803.174 641.378 804.727 641.378 806.643C641.378 808.556 642.717 810.109 644.373 810.109Z" fill="#FBFBF9"/>
<path d="M549.516 836.119C551.172 836.119 552.512 834.76 552.512 833.083C552.512 831.409 551.172 830.05 549.516 830.05C547.863 830.05 546.521 831.409 546.521 833.083C546.521 834.76 547.863 836.119 549.516 836.119Z" fill="#FBFBF9"/>
<path d="M551.513 779.765C553.166 779.765 554.509 778.599 554.509 777.164C554.509 775.726 553.166 774.563 551.513 774.563C549.857 774.563 548.518 775.726 548.518 777.164C548.518 778.599 549.857 779.765 551.513 779.765Z" fill="#FBFBF9"/>
<path d="M423.704 865.596C425.91 865.596 427.7 864.239 427.7 862.562C427.7 860.888 425.91 859.527 423.704 859.527C421.501 859.527 419.712 860.888 419.712 862.562C419.712 864.239 421.501 865.596 423.704 865.596Z" fill="#FBFBF9"/>
<path d="M474.629 797.105C476.283 797.105 477.625 795.359 477.625 793.204C477.625 791.048 476.283 789.302 474.629 789.302C472.975 789.302 471.634 791.048 471.634 793.204C471.634 795.359 472.975 797.105 474.629 797.105Z" fill="#FBFBF9"/>
<path d="M371.285 816.178C373.215 816.178 374.779 815.209 374.779 814.012C374.779 812.815 373.215 811.844 371.285 811.844C369.354 811.844 367.79 812.815 367.79 814.012C367.79 815.209 369.354 816.178 371.285 816.178Z" fill="#FBFBF9"/>
<path d="M254.461 800.573C256.39 800.573 257.955 799.02 257.955 797.103C257.955 795.189 256.39 793.637 254.461 793.637C252.531 793.637 250.966 795.189 250.966 797.103C250.966 799.02 252.531 800.573 254.461 800.573Z" fill="#FBFBF9"/>
<path d="M171.584 771.095C172.965 771.095 174.082 770.124 174.082 768.928C174.082 767.732 172.965 766.76 171.584 766.76C170.205 766.76 169.089 767.732 169.089 768.928C169.089 770.124 170.205 771.095 171.584 771.095Z" fill="#FBFBF9"/>
<path d="M157.606 830.917C158.984 830.917 160.103 829.17 160.103 827.017C160.103 824.861 158.984 823.114 157.606 823.114C156.229 823.114 155.11 824.861 155.11 827.017C155.11 829.17 156.229 830.917 157.606 830.917Z" fill="#FBFBF9"/>
<path d="M95.202 842.188C97.4063 842.188 99.1945 840.829 99.1945 839.152C99.1945 837.477 97.4063 836.119 95.202 836.119C92.9947 836.119 91.2065 837.477 91.2065 839.152C91.2065 840.829 92.9947 842.188 95.202 842.188Z" fill="#FBFBF9"/>
<path d="M9.82907 807.509C12.3096 807.509 14.3223 805.181 14.3223 802.307C14.3223 799.435 12.3096 797.105 9.82907 797.105C7.34858 797.105 5.33582 799.435 5.33582 802.307C5.33582 805.181 7.34858 807.509 9.82907 807.509Z" fill="#FBFBF9"/>
<path d="M1153.61 5.55113C1155.26 5.55113 1156.6 4.38665 1156.6 2.9502C1156.6 1.51375 1155.26 0.349243 1153.61 0.349243C1151.95 0.349243 1150.61 1.51375 1150.61 2.9502C1150.61 4.38665 1151.95 5.55113 1153.61 5.55113Z" fill="#FBFBF9"/>
<path d="M1246.97 43.6983C1250.55 43.6983 1253.46 41.3695 1253.46 38.4966C1253.46 35.6236 1250.55 33.2946 1246.97 33.2946C1243.38 33.2946 1240.48 35.6236 1240.48 38.4966C1240.48 41.3695 1243.38 43.6983 1246.97 43.6983Z" fill="#FBFBF9"/>
<path d="M1373.77 33.2946C1376.26 33.2946 1378.27 31.1596 1378.27 28.5262C1378.27 25.8928 1376.26 23.7578 1373.77 23.7578C1371.29 23.7578 1369.28 25.8928 1369.28 28.5262C1369.28 31.1596 1371.29 33.2946 1373.77 33.2946Z" fill="#FBFBF9"/>
<path d="M1360.3 75.7767C1362.5 75.7767 1364.29 74.2238 1364.29 72.3085C1364.29 70.3932 1362.5 68.8408 1360.3 68.8408C1358.09 68.8408 1356.3 70.3932 1356.3 72.3085C1356.3 74.2238 1358.09 75.7767 1360.3 75.7767Z" fill="#FBFBF9"/>
<path d="M1346.82 110.456C1349.3 110.456 1351.31 108.515 1351.31 106.121C1351.31 103.727 1349.3 101.786 1346.82 101.786C1344.33 101.786 1342.32 103.727 1342.32 106.121C1342.32 108.515 1344.33 110.456 1346.82 110.456Z" fill="#FBFBF9"/>
<path d="M1229.49 113.924C1231.7 113.924 1233.49 112.565 1233.49 110.889C1233.49 109.214 1231.7 107.855 1229.49 107.855C1227.28 107.855 1225.5 109.214 1225.5 110.889C1225.5 112.565 1227.28 113.924 1229.49 113.924Z" fill="#FBFBF9"/>
<path d="M1170.08 79.2445C1172.01 79.2445 1173.58 78.08 1173.58 76.6437C1173.58 75.2071 1172.01 74.0426 1170.08 74.0426C1168.15 74.0426 1166.59 75.2071 1166.59 76.6437C1166.59 78.08 1168.15 79.2445 1170.08 79.2445Z" fill="#FBFBF9"/>
<path d="M1122.65 118.259C1123.76 118.259 1124.65 117.289 1124.65 116.091C1124.65 114.894 1123.76 113.924 1122.65 113.924C1121.55 113.924 1120.66 114.894 1120.66 116.091C1120.66 117.289 1121.55 118.259 1122.65 118.259Z" fill="#FBFBF9"/>
<path d="M1116.16 74.0426C1118.09 74.0426 1119.66 72.6841 1119.66 71.0083C1119.66 69.3323 1118.09 67.9738 1116.16 67.9738C1114.23 67.9738 1112.67 69.3323 1112.67 71.0083C1112.67 72.6841 1114.23 74.0426 1116.16 74.0426Z" fill="#FBFBF9"/>
<path d="M1010.32 105.254C1011.7 105.254 1012.82 104.09 1012.82 102.653C1012.82 101.217 1011.7 100.052 1010.32 100.052C1008.94 100.052 1007.83 101.217 1007.83 102.653C1007.83 104.09 1008.94 105.254 1010.32 105.254Z" fill="#FBFBF9"/>
<path d="M935.933 71.4417C938.69 71.4417 940.927 69.3067 940.927 66.6733C940.927 64.0396 938.69 61.9049 935.933 61.9049C933.176 61.9049 930.942 64.0396 930.942 66.6733C930.942 69.3067 933.176 71.4417 935.933 71.4417Z" fill="#FBFBF9"/>
<path d="M931.443 6.41819C933.371 6.41819 934.936 5.2537 934.936 3.81726C934.936 2.3808 933.371 1.21631 931.443 1.21631C929.511 1.21631 927.946 2.3808 927.946 3.81726C927.946 5.2537 929.511 6.41819 931.443 6.41819Z" fill="#FBFBF9"/>
<path d="M853.557 74.0426C856.038 74.0426 858.051 72.684 858.051 71.0081C858.051 69.3324 856.038 67.9738 853.557 67.9738C851.075 67.9738 849.065 69.3324 849.065 71.0081C849.065 72.684 851.075 74.0426 853.557 74.0426Z" fill="#FBFBF9"/>
<path d="M612.921 12.487C614.851 12.487 616.415 11.1284 616.415 9.45252C616.415 7.77664 614.851 6.41809 612.921 6.41809C610.99 6.41809 609.426 7.77664 609.426 9.45252C609.426 11.1284 610.99 12.487 612.921 12.487Z" fill="#FBFBF9"/>
<path d="M561.997 40.2304C563.928 40.2304 565.492 39.066 565.492 37.6294C565.492 36.193 563.928 35.0286 561.997 35.0286C560.067 35.0286 558.503 36.193 558.503 37.6294C558.503 39.066 560.067 40.2304 561.997 40.2304Z" fill="#FBFBF9"/>
<path d="M556.005 80.1115C557.938 80.1115 559.501 78.7529 559.501 77.077C559.501 75.4012 557.938 74.0426 556.005 74.0426C554.075 74.0426 552.512 75.4012 552.512 77.077C552.512 78.7529 554.075 80.1115 556.005 80.1115Z" fill="#FBFBF9"/>
<path d="M516.564 51.5012C518.221 51.5012 519.561 50.3368 519.561 48.9001C519.561 47.4637 518.221 46.2993 516.564 46.2993C514.911 46.2993 513.57 47.4637 513.57 48.9001C513.57 50.3368 514.911 51.5012 516.564 51.5012Z" fill="#FBFBF9"/>
<path d="M343.325 17.6889C345.255 17.6889 346.821 16.3304 346.821 14.6544C346.821 12.9785 345.255 11.62 343.325 11.62C341.398 11.62 339.832 12.9785 339.832 14.6544C339.832 16.3304 341.398 17.6889 343.325 17.6889Z" fill="#FBFBF9"/>
<path d="M502.587 100.052C504.241 100.052 505.582 99.0816 505.582 97.8846C505.582 96.6876 504.241 95.7172 502.587 95.7172C500.932 95.7172 499.591 96.6876 499.591 97.8846C499.591 99.0816 500.932 100.052 502.587 100.052Z" fill="#FBFBF9"/>
<path d="M639.381 80.1116C641.038 80.1116 642.376 79.5293 642.376 78.8112C642.376 78.0928 641.038 77.5106 639.381 77.5106C637.728 77.5106 636.385 78.0928 636.385 78.8112C636.385 79.5293 637.728 80.1116 639.381 80.1116Z" fill="#FBFBF9"/>
<path d="M657.354 105.254C659.01 105.254 660.349 104.09 660.349 102.653C660.349 101.217 659.01 100.052 657.354 100.052C655.698 100.052 654.358 101.217 654.358 102.653C654.358 104.09 655.698 105.254 657.354 105.254Z" fill="#FBFBF9"/>
<path d="M243.976 113.057C245.631 113.057 246.972 111.892 246.972 110.456C246.972 109.019 245.631 107.855 243.976 107.855C242.322 107.855 240.981 109.019 240.981 110.456C240.981 111.892 242.322 113.057 243.976 113.057Z" fill="#FBFBF9"/>
<path d="M328.351 93.9832C330.282 93.9832 331.844 92.4306 331.844 90.5154C331.844 88.6 330.282 87.0474 328.351 87.0474C326.42 87.0474 324.854 88.6 324.854 90.5154C324.854 92.4306 326.42 93.9832 328.351 93.9832Z" fill="#FBFBF9"/>
<path d="M318.366 60.1709C320.296 60.1709 321.859 58.23 321.859 55.836C321.859 53.442 320.296 51.5011 318.366 51.5011C316.436 51.5011 314.87 53.442 314.87 55.836C314.87 58.23 316.436 60.1709 318.366 60.1709Z" fill="#FBFBF9"/>
</g>
<defs>
<clipPath id="clip0_15_85">
<rect width="1440" height="876" fill="white"/>
</clipPath>
</defs>
</svg>
