<svg width="24" height="24" viewBox="0 0 24 24" fill="none" xmlns="http://www.w3.org/2000/svg">
<path d="M9.75 7.5C9.75 7.91421 9.41421 8.25 9 8.25C8.58579 8.25 8.25 7.91421 8.25 7.5C8.25 7.08579 8.58579 6.75 9 6.75C9.41421 6.75 9.75 7.08579 9.75 7.5Z" fill="black"/>
<path d="M9 11.25C9.41421 11.25 9.75 10.9142 9.75 10.5C9.75 10.0858 9.41421 9.75 9 9.75C8.58579 9.75 8.25 10.0858 8.25 10.5C8.25 10.9142 8.58579 11.25 9 11.25Z" fill="black"/>
<path d="M9.75 13.5C9.75 13.9142 9.41421 14.25 9 14.25C8.58579 14.25 8.25 13.9142 8.25 13.5C8.25 13.0858 8.58579 12.75 9 12.75C9.41421 12.75 9.75 13.0858 9.75 13.5Z" fill="black"/>
<path d="M9 17.25C9.41421 17.25 9.75 16.9142 9.75 16.5C9.75 16.0858 9.41421 15.75 9 15.75C8.58579 15.75 8.25 16.0858 8.25 16.5C8.25 16.9142 8.58579 17.25 9 17.25Z" fill="black"/>
<path fill-rule="evenodd" clip-rule="evenodd" d="M4.5 3.75H19.5C21.1569 3.75 22.5 5.09315 22.5 6.75V8.53616C22.5 9.65043 21.8701 10.4845 21.4114 10.968C21.1551 11.2382 21 11.5994 21 12C21 12.4006 21.1551 12.7618 21.4114 13.032C21.8701 13.5155 22.5 14.3496 22.5 15.4638V17.25C22.5 18.9069 21.1569 20.25 19.5 20.25H4.5C2.84314 20.25 1.5 18.9069 1.5 17.25V15.4638C1.5 14.3496 2.12992 13.5155 2.58856 13.032C2.84495 12.7618 3 12.4006 3 12C3 11.5994 2.84495 11.2382 2.58856 10.968C2.12992 10.4845 1.5 9.65043 1.5 8.53616V6.75C1.5 5.09315 2.84314 3.75 4.5 3.75ZM4.5 5.25C3.67157 5.25 3 5.92157 3 6.75V8.53616C3 9.07161 3.30826 9.54716 3.67678 9.93562C4.18699 10.4734 4.5 11.2002 4.5 12C4.5 12.7998 4.18699 13.5266 3.67678 14.0644C3.30826 14.4528 3 14.9284 3 15.4638V17.25C3 18.0784 3.67157 18.75 4.5 18.75H19.5C20.3284 18.75 21 18.0784 21 17.25V15.4638C21 14.9284 20.6917 14.4528 20.3232 14.0644C19.813 13.5266 19.5 12.7998 19.5 12C19.5 11.2002 19.813 10.4734 20.3232 9.93562C20.6917 9.54716 21 9.07161 21 8.53616V6.75C21 5.92157 20.3284 5.25 19.5 5.25H4.5Z" fill="black"/>
</svg>
