<svg width="64" height="64" viewBox="0 0 64 64" fill="none" xmlns="http://www.w3.org/2000/svg">
<path d="M64 32C64 34.5974 57.9394 36.3636 57.2814 38.7879C56.6234 41.2814 60.9524 45.8528 59.7056 48C58.4242 50.2164 52.2944 48.7273 50.4935 50.4935C48.6926 52.2944 50.1818 58.4242 48 59.7056C45.8182 60.9524 41.2468 56.6234 38.7879 57.2814C36.3983 57.9394 34.5974 64 32 64C29.4026 64 27.6364 57.9394 25.2121 57.2814C22.7186 56.6234 18.1472 60.9524 16 59.7056C13.7836 58.4242 15.2727 52.2944 13.5065 50.4935C11.7056 48.6926 5.57576 50.1818 4.29437 48C3.04762 45.8182 7.37662 41.2468 6.71861 38.7879C6.06061 36.3983 0 34.5974 0 32C0 29.4026 6.06061 27.6364 6.71861 25.2121C7.37662 22.7186 3.04762 18.1472 4.29437 16C5.57576 13.7836 11.7056 15.2727 13.5065 13.5065C15.3074 11.7056 13.8182 5.57576 16 4.29437C18.1818 3.04762 22.7532 7.37662 25.2121 6.71861C27.6364 6.06061 29.4026 0 32 0C34.5974 0 36.3636 6.06061 38.7879 6.71861C41.2814 7.37662 45.8528 3.04762 48 4.29437C50.2164 5.57576 48.7273 11.7056 50.4935 13.5065C52.2944 15.3074 58.4242 13.8182 59.7056 16C60.9524 18.1818 56.6234 22.7532 57.2814 25.2121C57.9394 27.6364 64 29.4026 64 32Z" fill="#FFC900"/>
<path fill-rule="evenodd" clip-rule="evenodd" d="M24.125 23V29.75H21.8748C21.2535 29.75 20.7427 30.2556 20.8191 30.8722C20.9361 31.8166 21.2005 32.7433 21.6062 33.6247C22.1715 34.8531 23.0002 35.9693 24.0449 36.9095C25.0246 37.7912 26.1764 38.502 27.4417 39.0067L26.3903 45.3151C26.3359 45.6412 26.4278 45.9748 26.6416 46.2272C26.8554 46.4795 27.1693 46.625 27.5 46.625H36.5C36.8307 46.625 37.1446 46.4795 37.3584 46.2272C37.5722 45.9748 37.6641 45.6412 37.6097 45.3151L36.5583 39.0066C37.8235 38.5019 38.9751 37.7912 39.9548 36.9095C40.9994 35.9693 41.8281 34.8531 42.3935 33.6247C42.7991 32.7433 43.0635 31.8166 43.1805 30.8722C43.2569 30.2556 42.7461 29.75 42.1248 29.75H39.875V23C39.875 19.8934 37.3566 17.375 34.25 17.375H29.75C26.6434 17.375 24.125 19.8934 24.125 23ZM34.25 19.625H29.75C27.886 19.625 26.375 21.136 26.375 23V29.75H30.875V28.625C30.875 28.0037 31.3787 27.5 32 27.5C32.6213 27.5 33.125 28.0037 33.125 28.625V29.75H37.625V23C37.625 21.136 36.114 19.625 34.25 19.625ZM23.3764 32C23.4553 32.2307 23.5465 32.459 23.6501 32.684C24.0825 33.6234 24.7237 34.4934 25.55 35.237C26.3768 35.9811 27.3708 36.5823 28.4806 36.996C29.5904 37.4098 30.7869 37.625 31.9998 37.625C33.2127 37.625 34.4092 37.4098 35.5191 36.996C36.6288 36.5823 37.6228 35.9811 38.4496 35.237C39.2759 34.4934 39.9172 33.6234 40.3495 32.684C40.4531 32.459 40.5443 32.2307 40.6232 32L23.3764 32ZM29.6163 39.6452L28.828 44.375H35.172L34.3837 39.6451C33.6023 39.7976 32.8032 39.875 31.9998 39.875C31.1966 39.875 30.3976 39.7976 29.6163 39.6452Z" fill="white"/>
</svg>
