<svg width="64" height="65" viewBox="0 0 64 65" fill="none" xmlns="http://www.w3.org/2000/svg">
<path d="M3.18285 18.0916C10.8869 2.16254 30.0166 -4.49937 45.9084 3.20463C61.8375 10.9086 68.4994 30.0384 60.7954 45.9302C53.0914 61.8592 33.9616 68.5211 18.0326 60.8171C2.17798 53.1504 -4.48393 34.0206 3.18285 18.0916Z" fill="#FF90E8"/>
<ellipse cx="32.3998" cy="31.9999" rx="9.6" ry="9.6" stroke="#FBFBF9" stroke-width="1.5"/>
<path d="M26 48L30.2949 35.7629C31.1753 33.2543 31.6155 32 32.4 32C33.1845 32 33.6247 33.2543 34.5051 35.7629L38.8 48" stroke="#FBFBF9" stroke-width="1.5" stroke-linecap="round" stroke-linejoin="round"/>
<path d="M35.6002 19.2C35.6002 20.9673 34.1675 22.4 32.4002 22.4C30.6329 22.4 29.2002 20.9673 29.2002 19.2C29.2002 17.4327 30.6329 16 32.4002 16C34.1675 16 35.6002 17.4327 35.6002 19.2Z" stroke="#FBFBF9" stroke-width="1.5"/>
<path d="M43.5998 28.7999C41.8325 28.7999 40.3998 27.3672 40.3998 25.5999C40.3998 23.8326 41.8325 22.3999 43.5998 22.3999C45.3671 22.3999 46.7998 23.8326 46.7998 25.5999C46.7998 27.3672 45.3671 28.7999 43.5998 28.7999Z" stroke="#FBFBF9" stroke-width="1.5"/>
<path d="M24.4 38.4002C24.4 40.1675 22.9673 41.6002 21.2 41.6002C19.4327 41.6002 18 40.1675 18 38.4002C18 36.6329 19.4327 35.2002 21.2 35.2002C22.9673 35.2002 24.4 36.6329 24.4 38.4002Z" stroke="#FBFBF9" stroke-width="1.5"/>
<path d="M24.4 25.2C24.4 26.9673 22.9673 28.4 21.2 28.4C19.4327 28.4 18 26.9673 18 25.2C18 23.4327 19.4327 22 21.2 22C22.9673 22 24.4 23.4327 24.4 25.2Z" stroke="#FBFBF9" stroke-width="1.5"/>
<path d="M46.8004 38.4002C46.8004 40.1675 45.3677 41.6002 43.6004 41.6002C41.8331 41.6002 40.4004 40.1675 40.4004 38.4002C40.4004 36.6329 41.8331 35.2002 43.6004 35.2002C45.3677 35.2002 46.8004 36.6329 46.8004 38.4002Z" stroke="#FBFBF9" stroke-width="1.5"/>
</svg>
